<svg xmlns="http://www.w3.org/2000/svg" viewBox="0 0 161.14 132.59"><defs><style>.cls-1{fill:#ff0211;}.cls-2{fill:#4dc9ff;}</style></defs><title>アセット 1</title><g id="レイヤー_2" data-name="レイヤー 2"><g id="Design"><polygon class="cls-1" points="60.4 20.19 87.27 0 161.14 33.54 161.06 112.46 134.22 132.59 134.22 53.74 60.4 20.19"/><polygon class="cls-1" points="26.87 37.23 0 25.02 0 105.65 26.87 85.46 26.87 37.23"/><polygon class="cls-1" points="60.4 52.5 60.4 20.19 26.87 4.83 0 25.02 60.4 52.5"/><polygon class="cls-2" points="87.19 32.37 60.4 20.19 60.4 52.5 87.19 32.37"/><polygon class="cls-1" points="87.26 52.06 60.39 72.17 60.39 119.21 87.26 99.02 87.26 52.06"/><polygon class="cls-2" points="26.87 4.83 0 25.02 26.87 37.23 26.87 4.83"/></g></g></svg>