<svg height="454" viewBox="0 0 1088 454" width="1088" xmlns="http://www.w3.org/2000/svg"><path d="m119.584 1344v-2.412c7.812-6.912 11.844-12.06 11.844-16.416 0-2.88-1.548-4.86-4.5-4.86-2.088 0-3.816 1.332-5.22 2.952l-2.34-2.304c2.268-2.448 4.608-3.96 8.064-3.96 4.86 0 7.992 3.168 7.992 7.956 0 5.112-4.068 10.404-9.684 15.768 1.368-.144 3.024-.252 4.32-.252h6.624v3.528zm29.196.468c-5.22 0-8.568-4.608-8.568-13.824 0-9.18 3.348-13.644 8.568-13.644 5.184 0 8.568 4.5 8.568 13.644 0 9.216-3.384 13.824-8.568 13.824zm0-3.276c2.7 0 4.608-2.88 4.608-10.548 0-7.596-1.908-10.368-4.608-10.368s-4.608 2.772-4.608 10.368c0 7.668 1.908 10.548 4.608 10.548zm13.356 2.808v-3.42h5.796v-18.432h-4.752v-2.628c2.484-.468 4.248-1.08 5.76-2.016h3.132v23.076h5.184v3.42zm27.108-12.96c1.62 0 3.456-.936 5.04-3.24-.396-5.22-2.376-7.596-5.256-7.596-2.268 0-4.068 2.052-4.068 5.508 0 3.384 1.512 5.328 4.284 5.328zm-7.704 10.62 2.232-2.556c1.044 1.188 2.664 1.98 4.356 1.98 3.204 0 5.976-2.592 6.228-10.152-1.548 1.908-3.816 3.096-5.832 3.096-4.428 0-7.416-2.772-7.416-8.316 0-5.256 3.6-8.712 7.884-8.712 5.076 0 9.18 4.104 9.18 12.852 0 10.44-4.752 14.616-9.864 14.616-3.06 0-5.22-1.224-6.768-2.808zm29.448-6.012h7.236v-6.372h-7.236zm23.328 0v3.24h-12.636v7.956h-3.456v-7.956h-16.38v-3.24h5.796v-9.504h10.584v-4.968h-8.244c-1.548 2.664-3.348 5.04-5.184 6.84-.648-.576-2.088-1.656-2.916-2.16 3.312-2.844 6.192-7.416 7.848-12.204l3.384.9c-.432 1.116-.936 2.304-1.404 3.384h20.844v3.24h-10.872v4.968h10.044v3.132h-10.044v6.372zm3.348 8.352v-2.412c7.812-6.912 11.844-12.06 11.844-16.416 0-2.88-1.548-4.86-4.5-4.86-2.088 0-3.816 1.332-5.22 2.952l-2.34-2.304c2.268-2.448 4.608-3.96 8.064-3.96 4.86 0 7.992 3.168 7.992 7.956 0 5.112-4.068 10.404-9.684 15.768 1.368-.144 3.024-.252 4.32-.252h6.624v3.528zm29.304-11.304h15.804v-5.328h-15.48c0 1.656-.108 3.456-.324 5.328zm15.804-13.86h-15.48v5.328h15.48zm3.528-3.24v26.712c0 2.16-.576 3.204-2.016 3.744-1.512.612-3.96.684-7.704.684-.216-.972-.864-2.592-1.44-3.528 2.808.144 5.688.108 6.552.072.792 0 1.08-.288 1.08-1.044v-6.3h-16.344c-.936 4.032-2.736 8.028-6.156 10.944-.504-.72-1.8-1.944-2.556-2.448 5.616-4.824 6.156-11.88 6.156-17.532v-11.304zm22.608 3.78c4.068.612 11.232.468 14.94-.036v3.672c-4.068.396-10.8.432-14.94 0zm-1.224 14.544 3.24.288c-.288 1.224-.432 2.196-.432 3.168 0 1.62 1.188 2.88 5.508 2.88 3.204 0 5.904-.288 8.892-.936l.072 3.816c-2.232.432-5.184.72-9.036.72-6.048 0-8.856-2.088-8.856-5.544 0-1.404.288-2.844.612-4.392zm-8.964-17.46 3.996.324c-.252.684-.612 2.088-.756 2.736-.612 2.916-1.764 9.612-1.764 13.428 0 1.26.072 2.448.252 3.744.54-1.44 1.26-3.168 1.8-4.464l1.872 1.44c-.972 2.7-2.232 6.516-2.556 8.316-.108.468-.216 1.224-.18 1.62 0 .36.036.9.072 1.332l-3.24.216c-.72-2.484-1.368-6.696-1.368-11.52 0-5.328 1.152-11.376 1.548-14.22.144-.9.288-2.016.324-2.952zm56.232 6.552h3.384c1.728 0 2.88-.072 3.6-.216v3.816c-.576-.072-1.872-.108-3.564-.108h-3.42v1.224c0 9.288-2.088 14.436-10.512 18.216l-3.06-2.88c6.732-2.484 9.9-5.58 9.9-15.12v-1.44h-9.504v5.4c0 1.476.108 2.988.144 3.492h-3.96c.036-.504.18-2.016.18-3.492v-5.4h-3.528c-1.692 0-3.168.072-3.744.108v-3.852c.468.072 2.088.252 3.744.252h3.528v-4.14c0-1.26-.144-2.412-.18-2.88h4.032c-.072.468-.216 1.548-.216 2.88v4.14h9.504v-4.176c0-1.44-.108-2.628-.18-3.132h4.068c-.072.54-.216 1.692-.216 3.132zm13.176 9.36v-4.428c1.152.108 3.384.216 5.328.216h19.548c1.764 0 3.168-.144 4.032-.216v4.428c-.792-.036-2.412-.144-3.996-.144h-19.584c-2.016 0-4.14.072-5.328.144zm61.74-12.06-2.34 1.008c-.756-1.44-1.908-3.6-2.88-4.968l2.304-.972c.9 1.296 2.196 3.528 2.916 4.932zm-19.008 10.98v7.344c0 1.728.756 2.16 2.448 2.52 1.08.18 2.772.252 4.5.252 3.78 0 9.432-.396 12.384-1.188v4.14c-3.24.468-8.64.72-12.6.72-2.232 0-4.392-.108-5.904-.36-2.916-.54-4.572-1.98-4.572-5.004v-19.728c0-.828-.072-2.304-.252-3.24h4.212c-.144.936-.216 2.232-.216 3.24v7.56c4.248-1.044 9.648-2.736 13.14-4.212 1.188-.468 2.304-1.008 3.492-1.764l1.584 3.636c-1.188.468-2.628 1.116-3.78 1.512-3.852 1.548-9.9 3.384-14.436 4.572zm17.892-16.452 2.304-.972c.936 1.332 2.304 3.6 2.952 4.896l-2.34 1.008c-.756-1.548-1.908-3.6-2.916-4.932zm34.848 3.204 2.34 1.728c-.252.36-.792 1.26-1.044 1.872-1.26 2.952-3.384 7.02-5.904 10.26 3.708 3.168 8.064 7.812 10.296 10.548l-3.204 2.808c-2.34-3.24-5.94-7.2-9.504-10.512-3.852 4.104-8.676 7.956-13.86 10.332l-2.916-3.024c5.832-2.232 11.232-6.552 14.796-10.548 2.448-2.736 4.86-6.696 5.724-9.504h-13.212c-1.404 0-3.348.18-3.924.216v-4.068c.72.108 2.808.252 3.924.252h13.356c1.332 0 2.52-.144 3.132-.36zm30.816 20.952h-3.456c.108-1.224.144-3.24.144-5.004-3.024 1.692-4.932 3.312-4.932 5.4 0 2.448 2.304 2.916 5.904 2.916 2.88 0 6.768-.36 9.9-.936l-.108 3.636c-2.592.324-6.696.612-9.9.612-5.328 0-9.468-1.224-9.468-5.652 0-4.392 4.284-7.164 8.388-9.252-.432-1.26-1.584-1.764-2.88-1.764-2.232 0-4.392 1.152-5.904 2.556-1.044 1.008-2.088 2.304-3.276 3.816l-3.06-2.304c4.176-3.96 6.588-7.416 8.064-10.404h-1.044c-1.476 0-3.96-.072-5.94-.216v-3.348c1.872.252 4.428.396 6.12.396h2.088c.468-1.62.756-3.168.828-4.284l3.708.288c-.216.936-.504 2.304-1.008 3.852 3.528-.144 7.272-.468 10.548-1.044v3.312c-3.492.54-7.884.828-11.736.972-.72 1.584-1.656 3.24-2.7 4.644 1.116-.648 3.132-1.044 4.536-1.044 2.232 0 4.068 1.044 4.752 3.024 2.196-1.044 4.032-1.8 5.724-2.556 1.188-.54 2.232-1.008 3.384-1.584l1.404 3.312c-.972.288-2.52.864-3.6 1.296-1.836.684-4.14 1.656-6.624 2.808.036 2.016.108 4.86.144 6.552zm27.612-21.276h-6.912v2.412h6.912zm-6.912 7.344h6.912v-2.628h-6.912zm10.044 2.448h-10.044v19.332h-3.312v-31.608h13.356zm-.864 8.172h4.284v-3.42h-4.284zm11.736 2.772h-4.464v7.74h-2.988v-7.74h-4.356c-.288 2.412-1.44 6.084-4.716 8.28-.468-.612-1.476-1.512-2.16-1.98 2.664-1.62 3.672-4.32 3.96-6.3h-4.104v-2.772h4.212v-3.42h-3.564v-2.664h17.46v2.664h-3.744v3.42h4.464zm-4.896-13.32h7.128v-2.7h-7.128zm7.128-7.416h-7.128v2.412h7.128zm3.312-2.484v27.504c0 1.836-.36 2.808-1.548 3.384-1.152.54-2.952.648-5.652.612-.108-.9-.576-2.412-1.08-3.312 1.836.036 3.672.036 4.248.036.54-.036.72-.216.72-.756v-15.12h-10.332v-12.348zm18.612 13.896-.324-3.24 2.88-.144c1.404-3.492 2.952-8.388 3.744-11.988l3.672.756c-1.188 3.564-2.7 7.776-4.104 11.016l8.208-.468c-.864-1.512-1.872-3.06-2.88-4.392l2.664-1.332c2.304 2.952 4.752 6.912 5.652 9.576l-2.916 1.584c-.216-.72-.576-1.584-.972-2.484-5.616.432-11.412.792-15.624 1.116zm-3.744-4.968h-3.996c-.684 2.952-1.404 5.868-2.052 8.496 1.152.72 2.412 1.512 3.6 2.376 1.188-3.024 2.016-6.66 2.448-10.872zm1.404-3.204 1.98.396c-.432 6.48-1.476 11.628-3.132 15.66 1.62 1.332 3.06 2.628 3.996 3.816l-2.016 2.7c-.828-1.044-2.052-2.268-3.456-3.528-1.764 3.024-3.996 5.292-6.732 6.948-.504-.828-1.368-2.052-2.088-2.664 2.52-1.332 4.608-3.492 6.228-6.372-1.008-.792-2.016-1.512-3.024-2.196l-.396 1.44-2.772-1.476c.864-3.024 1.908-7.2 2.88-11.52h-3.024v-3.096h3.672c.54-2.556 1.044-5.076 1.44-7.308l3.204.36c-.432 2.16-.936 4.536-1.476 6.948h4.104zm16.488 14.292h-8.964v7.056h8.964zm-12.132 11.592v-14.652h15.444v14.508h-3.312v-1.368h-8.964v1.512zm26.64-31.032 4.536.036c-.216 1.296-.324 2.808-.396 4.068-.144 3.96-.432 12.168-.432 17.136 0 3.744 2.376 5.04 5.436 5.04 6.264 0 9.972-3.528 12.528-7.344l2.556 3.132c-2.376 3.384-7.164 7.992-15.156 7.992-5.436 0-9.072-2.34-9.072-8.244 0-5.076.36-14.256.36-17.712 0-1.476-.108-2.916-.36-4.104zm47.016 13.932v-3.312c1.908-.216 4.356-.36 6.66-.36 2.052 0 4.212.108 6.228.324l-.108 3.42c-1.8-.216-3.924-.432-6.048-.432-2.34 0-4.536.108-6.732.36zm2.52-10.224v3.564c-2.232.504-4.716.9-7.164 1.188-.324 1.548-.72 3.132-1.116 4.644-1.296 5.04-3.672 12.384-5.616 16.416l-3.96-1.332c2.16-3.636 4.716-10.98 6.048-15.984.324-1.08.612-2.268.864-3.42-1.008.036-1.944.072-2.844.072-1.656 0-2.952-.072-4.248-.144l-.072-3.528c1.728.216 2.988.288 4.356.288 1.116 0 2.304-.036 3.564-.144.18-1.044.36-1.98.432-2.628.144-1.152.18-2.448.108-3.24l4.356.324c-.252.9-.54 2.34-.684 3.06l-.432 2.088c2.16-.288 4.356-.72 6.408-1.224zm-4.5 15.372 3.384.324c-.288 1.116-.504 2.232-.504 3.096 0 1.62.864 3.06 5.4 3.06 2.34 0 4.788-.288 7.128-.72l-.108 3.636c-1.98.288-4.356.504-7.056.504-5.796 0-8.784-1.908-8.784-5.436 0-1.476.252-2.988.54-4.464zm-488.88 43.152 2.34 1.728c-.252.36-.792 1.26-1.044 1.872-1.26 2.952-3.384 7.02-5.904 10.26 3.708 3.168 8.064 7.812 10.296 10.548l-3.204 2.808c-2.34-3.24-5.94-7.2-9.504-10.512-3.852 4.104-8.676 7.956-13.86 10.332l-2.916-3.024c5.832-2.232 11.232-6.552 14.796-10.548 2.448-2.736 4.86-6.696 5.724-9.504h-13.212c-1.404 0-3.348.18-3.924.216v-4.068c.72.108 2.808.252 3.924.252h13.356c1.332 0 2.52-.144 3.132-.36zm39.96.864 2.844 2.34c-.432.468-.792.9-1.044 1.26-2.592 4.248-7.2 10.08-12.708 14.4 2.124 2.124 4.464 4.644 5.904 6.372l-3.312 2.664c-1.44-1.944-4.356-5.184-6.66-7.56-2.16-2.124-6.084-5.58-8.1-6.984l2.952-2.412c1.368 1.008 4.104 3.204 6.48 5.328 4.752-3.636 8.532-8.46 10.296-11.556h-20.232c-1.44 0-3.132.144-3.888.216v-4.032c.972.144 2.664.288 3.888.288h20.808c1.152 0 2.16-.108 2.772-.324zm14.328 10.008 3.204 1.548c-1.584 3.132-4.932 7.776-6.912 9.936l-3.096-2.088c2.376-2.268 5.364-6.408 6.804-9.396zm20.16-3.816h-9.072v17.136c0 1.98-1.044 3.06-3.384 3.06-1.692 0-3.816-.072-5.436-.252l-.324-3.564c1.548.288 3.168.432 4.104.432s1.332-.396 1.332-1.368c.036-1.692.036-13.572.036-15.3v-.144h-9.612c-1.116 0-2.268.036-3.276.108v-3.78c1.044.144 2.124.216 3.24.216h9.648v-3.348c0-.828-.144-2.232-.288-2.808h4.248c-.108.504-.288 2.016-.288 2.844v3.312h9.036c.936 0 2.268-.072 3.204-.18v3.708c-1.044-.072-2.268-.072-3.168-.072zm-4.824 5.472 3.096-1.692c1.908 2.304 4.752 6.84 6.192 9.468l-3.348 1.836c-1.476-2.952-4.104-7.38-5.94-9.612zm23.04-12.816-1.944 2.7c-1.332-1.26-4.104-2.952-6.372-3.996l1.836-2.412c2.232.9 5.04 2.448 6.48 3.708zm-1.836 9.36-1.944 2.844c-1.368-1.224-4.212-2.844-6.516-3.816l1.836-2.52c2.232.864 5.148 2.34 6.624 3.492zm-1.224 5.58 2.556 2.124c-1.728 3.78-3.924 8.064-5.868 11.52l-2.88-2.124c1.764-2.772 4.284-7.38 6.192-11.52zm14.436-10.152v3.564c0 1.296-.036 2.556-.108 3.852h5.472v-7.416zm11.484 10.548h-9.432c1.692 5.076 4.932 9 9.756 10.908-.756.648-1.836 1.98-2.34 2.916-5.004-2.304-8.28-6.588-10.296-12.312-1.116 4.716-3.816 9.072-9.972 12.312-.576-.684-1.872-1.872-2.7-2.376 6.084-3.096 8.568-7.092 9.576-11.448h-7.848v-3.132h8.316c.108-1.296.144-2.592.144-3.888v-3.528h-6.588v-3.132h6.588v-5.58h3.312v5.58h8.64v10.548h2.844zm13.14-15.336-1.944 2.7c-1.332-1.26-4.104-2.952-6.372-3.996l1.836-2.412c2.232.9 5.04 2.448 6.48 3.708zm-1.836 9.36-1.944 2.844c-1.368-1.224-4.212-2.844-6.516-3.816l1.836-2.52c2.232.864 5.148 2.34 6.624 3.492zm-1.044 5.58 2.556 2.124c-1.764 3.78-3.996 8.1-6.012 11.52l-2.88-2.124c1.8-2.772 4.392-7.38 6.336-11.52zm17.928-12.492h-7.992c1.296 1.368 2.7 2.448 4.284 3.312 1.476-.936 2.736-2.016 3.708-3.312zm1.26 17.352v-3.024h-10.152c0 .936-.072 1.944-.18 3.024zm6.192-17.352h-3.708c-1.152 1.872-2.664 3.42-4.428 4.752 2.664 1.008 5.616 1.656 8.856 2.196-.684.756-1.476 1.944-1.8 2.988-3.78-.756-7.2-1.692-10.224-3.24-2.412 1.224-5.148 2.16-8.028 2.916h2.988v1.908h10.152v-1.872h3.276v16.92h-3.276v-6.408h-10.908c-.684 2.448-1.98 4.896-4.356 6.84-.612-.576-1.872-1.44-2.664-1.836 4.068-3.204 4.572-7.92 4.572-11.16v-4.32c-.828.18-1.692.396-2.556.576-.252-.756-1.08-2.16-1.62-2.88 3.42-.504 6.66-1.296 9.468-2.484-1.8-1.26-3.456-2.88-4.932-4.896h-3.276v-2.88h9.432v-3.528h3.456v3.528h9.576zm28.188 2.808h3.384c1.728 0 2.88-.072 3.6-.216v3.816c-.576-.072-1.872-.108-3.564-.108h-3.42v1.224c0 9.288-2.088 14.436-10.512 18.216l-3.06-2.88c6.732-2.484 9.9-5.58 9.9-15.12v-1.44h-9.504v5.4c0 1.476.108 2.988.144 3.492h-3.96c.036-.504.18-2.016.18-3.492v-5.4h-3.528c-1.692 0-3.168.072-3.744.108v-3.852c.468.072 2.088.252 3.744.252h3.528v-4.14c0-1.26-.144-2.412-.18-2.88h4.032c-.072.468-.216 1.548-.216 2.88v4.14h9.504v-4.176c0-1.44-.108-2.628-.18-3.132h4.068c-.072.54-.216 1.692-.216 3.132zm13.176 9.36v-4.428c1.152.108 3.384.216 5.328.216h19.548c1.764 0 3.168-.144 4.032-.216v4.428c-.792-.036-2.412-.144-3.996-.144h-19.584c-2.016 0-4.14.072-5.328.144zm61.74-12.06-2.34 1.008c-.756-1.44-1.908-3.6-2.88-4.968l2.304-.972c.9 1.296 2.196 3.528 2.916 4.932zm-19.008 10.98v7.344c0 1.728.756 2.16 2.448 2.52 1.08.18 2.772.252 4.5.252 3.78 0 9.432-.396 12.384-1.188v4.14c-3.24.468-8.64.72-12.6.72-2.232 0-4.392-.108-5.904-.36-2.916-.54-4.572-1.98-4.572-5.004v-19.728c0-.828-.072-2.304-.252-3.24h4.212c-.144.936-.216 2.232-.216 3.24v7.56c4.248-1.044 9.648-2.736 13.14-4.212 1.188-.468 2.304-1.008 3.492-1.764l1.584 3.636c-1.188.468-2.628 1.116-3.78 1.512-3.852 1.548-9.9 3.384-14.436 4.572zm17.892-16.452 2.304-.972c.936 1.332 2.304 3.6 2.952 4.896l-2.34 1.008c-.756-1.548-1.908-3.6-2.916-4.932zm34.848 3.204 2.34 1.728c-.252.36-.792 1.26-1.044 1.872-1.26 2.952-3.384 7.02-5.904 10.26 3.708 3.168 8.064 7.812 10.296 10.548l-3.204 2.808c-2.34-3.24-5.94-7.2-9.504-10.512-3.852 4.104-8.676 7.956-13.86 10.332l-2.916-3.024c5.832-2.232 11.232-6.552 14.796-10.548 2.448-2.736 4.86-6.696 5.724-9.504h-13.212c-1.404 0-3.348.18-3.924.216v-4.068c.72.108 2.808.252 3.924.252h13.356c1.332 0 2.52-.144 3.132-.36zm32.256 18.576v-23.148h11.592v3.096h-8.244v20.052zm38.16-20.412 4.32 1.512c-.432.72-1.008 2.088-1.332 2.88-1.116 3.024-2.88 6.84-5.148 10.224 3.168 2.628 6.264 5.436 8.748 8.1l-2.916 3.204c-2.592-2.988-5.256-5.544-8.244-8.1-3.276 3.996-7.632 8.1-13.788 11.412l-3.276-2.916c6.12-2.916 10.476-6.66 14.04-11.016-2.628-2.088-6.336-4.86-9.9-7.056l2.412-2.88c2.988 1.908 6.948 4.644 9.828 6.804 2.088-3.132 3.456-6.264 4.464-9.216.288-.828.648-2.124.792-2.952zm15.984 28.98-3.42-2.304c3.096-2.196 5.148-5.436 6.192-8.748 1.044-3.204 1.044-10.224 1.044-14.364 0-1.224-.072-2.088-.288-2.916h4.176c-.036.288-.18 1.62-.18 2.88 0 4.104-.144 11.772-1.116 15.372-1.08 3.96-3.348 7.488-6.408 10.08zm15.516 0-2.376-1.98c.144-.612.252-1.44.252-2.268v-21.312c0-1.476-.216-2.664-.216-2.88h4.176c-.036.216-.18 1.404-.18 2.88v19.908c3.132-1.404 7.2-4.464 9.792-8.28l2.16 3.096c-3.06 4.068-8.1 7.848-12.24 9.936-.612.288-.972.612-1.368.9zm40.716-22.968c0 1.368 1.116 2.484 2.484 2.484s2.484-1.116 2.484-2.484-1.116-2.484-2.484-2.484-2.484 1.116-2.484 2.484zm-2.016 0c0-2.52 2.016-4.536 4.5-4.536 2.52 0 4.536 2.016 4.536 4.536 0 2.484-2.016 4.464-4.536 4.464-2.484 0-4.5-1.98-4.5-4.464zm-21.96 11.988c.972-.828 1.692-1.548 2.736-2.556 1.656-1.692 4.644-5.472 7.02-8.28 2.016-2.376 3.708-2.628 6.444-.324 2.304 1.872 5.148 4.932 7.416 7.38 2.412 2.592 6.156 6.588 8.748 9.648l-2.988 3.24c-2.412-3.096-5.688-6.912-7.92-9.504-2.376-2.7-5.4-5.976-6.876-7.236-1.368-1.152-1.944-1.152-3.06.252-1.62 1.98-4.464 5.76-6.012 7.74-.756 1.044-1.584 2.196-2.16 3.024zm56.124-8.244v15.12c0 1.476.072 3.456.252 4.248h-4.464c.108-.792.216-2.772.216-4.248v-12.816c-3.78 2.016-8.568 4.032-13.032 5.292l-2.052-3.492c6.156-1.404 12.24-4.068 16.236-6.552 3.636-2.268 7.38-5.472 9.396-8.064l3.06 2.772c-2.592 2.592-5.976 5.4-9.612 7.74zm26.964-1.944v23.148h-11.592v-3.096h8.244v-20.052zm30.24 11.124c3.132 0 5.616 2.556 5.616 5.652s-2.484 5.616-5.616 5.616c-3.096 0-5.616-2.52-5.616-5.616s2.52-5.652 5.616-5.652zm0 9.108c1.908 0 3.456-1.548 3.456-3.456s-1.548-3.456-3.456-3.456-3.456 1.548-3.456 3.456 1.548 3.456 3.456 3.456zm-542.844 103.26-.828-7.164-.108-4.248h4.284l-.108 4.248-.828 7.164zm7.92 0-.828-7.164-.144-4.248h4.32l-.108 4.248-.828 7.164zm15.588-13.572 3.168.936c-.9 2.628-2.088 5.292-3.384 7.848v24.084h-3.168v-18.756c-.828 1.152-1.62 2.196-2.484 3.132-.288-.792-1.26-2.592-1.872-3.348 3.132-3.384 6.012-8.676 7.74-13.896zm6.876 18.792h5.4c.036-.54.036-1.152.036-1.692v-1.548h-5.436zm0-8.856v3.24h5.436v-3.24zm13.752 0h-5.004v3.24h5.004zm0 8.856v-3.24h-5.004v1.584c0 .54 0 1.116-.036 1.656zm3.276 2.52h-8.64c-.36 2.088-1.116 4.032-2.484 5.796 3.6 1.404 8.1 2.16 13.176 2.484-.756.756-1.584 2.16-2.016 3.096-5.256-.468-9.792-1.476-13.536-3.24-1.836 1.404-4.32 2.592-7.56 3.564-.396-.792-1.368-2.124-2.052-2.736 2.88-.648 5.04-1.512 6.66-2.484-1.908-1.296-3.528-2.844-4.788-4.716l2.916-1.008c1.044 1.476 2.484 2.664 4.284 3.708 1.224-1.368 1.8-2.88 2.124-4.464h-8.208v-13.896h8.532v-2.664h-9.288v-2.916h21.924v2.916h-9.324v2.664h8.28zm15.444-16.848v6.048h6.516v3.096h-6.516v2.376c1.764 1.296 5.544 4.536 6.516 5.4l-1.908 2.844c-1.008-1.152-2.916-3.132-4.608-4.752v13.356h-3.276v-14.292c-1.764 3.708-3.996 7.344-6.228 9.612-.36-.972-1.224-2.376-1.764-3.24 2.736-2.592 5.616-7.164 7.308-11.304h-6.516v-3.096h7.2v-5.364c-2.196.432-4.428.792-6.516 1.044-.144-.756-.612-1.908-1.008-2.592 5.22-.792 11.232-2.052 14.652-3.564l2.412 2.556c-1.8.72-3.96 1.332-6.264 1.872zm11.88-.324v19.8h-3.24v-19.8zm5.364-3.6h3.348v28.116c0 2.088-.504 3.06-1.764 3.636-1.332.504-3.492.612-6.768.612-.18-.936-.684-2.484-1.188-3.456 2.448.108 4.716.108 5.436.072.684 0 .936-.216.936-.864zm40.068 10.332-2.016 2.952c-1.98-1.62-5.904-3.888-8.316-4.968l1.8-2.772c2.556 1.116 6.768 3.492 8.532 4.788zm-13.176-5.472.108 3.348c-1.764.468-3.96.936-6.336 1.26-1.728 5.004-4.824 11.232-7.74 15.156l-3.456-1.764c2.916-3.492 5.904-8.964 7.452-12.996-.864.036-1.692.072-2.556.072-1.368 0-2.844-.036-4.284-.144l-.252-3.312c1.404.144 3.096.216 4.536.216 1.188 0 2.412-.036 3.672-.144.54-1.98.972-4.176 1.044-6.048l3.924.36c-.288 1.224-.756 3.204-1.296 5.22 1.8-.288 3.564-.72 5.184-1.224zm1.44 19.908c0-.36 0-.756-.036-1.26-1.008-.288-2.124-.432-3.276-.432-2.376 0-3.924 1.044-3.924 2.484 0 1.512 1.224 2.556 3.672 2.556 2.664 0 3.564-1.512 3.564-3.348zm-.54-12.852h3.6c-.108 1.512-.072 2.736-.036 4.176.036 1.152.144 3.204.252 5.22 3.06 1.116 5.58 2.916 7.38 4.5l-1.908 3.06c-1.404-1.26-3.204-2.808-5.328-3.96v.972c0 3.024-1.836 5.472-6.516 5.472-4.14 0-7.488-1.764-7.488-5.472 0-3.348 3.024-5.724 7.452-5.724 1.044 0 2.016.072 2.988.252-.144-2.808-.324-6.156-.396-8.496zm26.28-8.64-1.944 2.7c-1.332-1.26-4.104-2.952-6.372-3.996l1.836-2.412c2.232.9 5.04 2.448 6.48 3.708zm-1.836 9.36-1.944 2.844c-1.368-1.224-4.212-2.844-6.516-3.816l1.836-2.52c2.232.864 5.148 2.34 6.624 3.492zm-1.224 5.58 2.556 2.124c-1.728 3.78-3.924 8.064-5.868 11.52l-2.88-2.124c1.764-2.772 4.284-7.38 6.192-11.52zm14.436-10.152v3.564c0 1.296-.036 2.556-.108 3.852h5.472v-7.416zm11.484 10.548h-9.432c1.692 5.076 4.932 9 9.756 10.908-.756.648-1.836 1.98-2.34 2.916-5.004-2.304-8.28-6.588-10.296-12.312-1.116 4.716-3.816 9.072-9.972 12.312-.576-.684-1.872-1.872-2.7-2.376 6.084-3.096 8.568-7.092 9.576-11.448h-7.848v-3.132h8.316c.108-1.296.144-2.592.144-3.888v-3.528h-6.588v-3.132h6.588v-5.58h3.312v5.58h8.64v10.548h2.844zm13.14-15.336-1.944 2.7c-1.332-1.26-4.104-2.952-6.372-3.996l1.836-2.412c2.232.9 5.04 2.448 6.48 3.708zm-1.836 9.36-1.944 2.844c-1.368-1.224-4.212-2.844-6.516-3.816l1.836-2.52c2.232.864 5.148 2.34 6.624 3.492zm-1.044 5.58 2.556 2.124c-1.764 3.78-3.996 8.1-6.012 11.52l-2.88-2.124c1.8-2.772 4.392-7.38 6.336-11.52zm17.928-12.492h-7.992c1.296 1.368 2.7 2.448 4.284 3.312 1.476-.936 2.736-2.016 3.708-3.312zm1.26 17.352v-3.024h-10.152c0 .936-.072 1.944-.18 3.024zm6.192-17.352h-3.708c-1.152 1.872-2.664 3.42-4.428 4.752 2.664 1.008 5.616 1.656 8.856 2.196-.684.756-1.476 1.944-1.8 2.988-3.78-.756-7.2-1.692-10.224-3.24-2.412 1.224-5.148 2.16-8.028 2.916h2.988v1.908h10.152v-1.872h3.276v16.92h-3.276v-6.408h-10.908c-.684 2.448-1.98 4.896-4.356 6.84-.612-.576-1.872-1.44-2.664-1.836 4.068-3.204 4.572-7.92 4.572-11.16v-4.32c-.828.18-1.692.396-2.556.576-.252-.756-1.08-2.16-1.62-2.88 3.42-.504 6.66-1.296 9.468-2.484-1.8-1.26-3.456-2.88-4.932-4.896h-3.276v-2.88h9.432v-3.528h3.456v3.528h9.576zm10.512-6.228 3.132.9c-.792 2.448-1.872 4.896-3.024 7.272v24.624h-3.204v-19.08c-.9 1.296-1.764 2.448-2.664 3.528-.324-.792-1.296-2.628-1.872-3.384 3.096-3.384 5.904-8.64 7.632-13.86zm25.56 9.864h-8.424c2.052 5.796 5.58 11.592 9.288 14.724-.828.612-1.944 1.764-2.556 2.664-3.384-3.348-6.48-8.964-8.604-14.832v11.052h5.328v3.024h-5.328v6.156h-3.276v-6.156h-5.364v-3.024h5.364v-10.836c-2.196 5.904-5.328 11.34-8.856 14.724-.504-.828-1.656-1.98-2.376-2.556 3.816-3.168 7.344-9.036 9.468-14.94h-7.884v-3.168h9.648v-6.696h3.276v6.696h10.296zm4.68 20.988-1.8-.972c1.26-1.8 1.692-4.86 1.836-7.92l1.908.396c-.144 3.204-.54 6.552-1.944 8.496zm2.556-8.208 1.584-.18c.396 2.088.576 4.788.504 6.516l-1.692.252c.108-1.8-.072-4.464-.396-6.588zm6.3-5.256h4.824s0 .864-.036 1.224c-.288 6.624-.576 10.116-1.08 11.88 4.392-2.088 6.516-4.788 7.488-7.596h-5.544v-9.108h6.372v-2.484h-3.996v-2.052c-.936.828-1.944 1.584-2.952 2.196-.324-.72-.972-1.872-1.512-2.556v.324h-3.564v2.736h3.564v2.628h-3.564zm-5.76-2.808v2.808h3.024v-2.808zm3.024-5.364h-3.024v2.736h3.024zm0-5.22h-3.024v2.592h3.024zm11.412 4.68h9.756c-2.016-1.764-3.852-3.888-5.076-5.904-1.044 1.944-2.736 4.068-4.68 5.904zm10.044 7.632h-3.708v.72c0 1.116-.036 2.232-.18 3.348h3.888zm-10.296 4.068h3.384c.18-1.152.216-2.268.216-3.384v-.684h-3.6zm13.176 2.52h-5.58c1.404 3.276 3.888 5.94 7.128 7.272-.684.576-1.656 1.836-2.124 2.628-3.276-1.584-5.688-4.464-7.2-8.064-1.224 3.06-3.636 5.94-8.28 8.172-.324-.648-1.224-1.692-1.872-2.232-.144.468-.324.792-.504 1.008-.54.684-1.152.972-1.98 1.044-.756.108-1.944.108-3.168.072-.072-.792-.324-1.944-.756-2.628 1.116.108 2.088.108 2.556.108.396 0 .684-.072.936-.432.324-.396.576-1.476.792-3.816l-1.224.468c-.252-1.296-1.008-3.204-1.764-4.68l1.44-.468c.612 1.116 1.26 2.556 1.62 3.708.108-1.332.216-2.952.288-5.004h-10.476v-18.828h12.888v2.772h-4.32v2.592h3.564v2.196c3.384-2.016 6.66-5.796 8.208-8.964h2.952c2.124 3.42 5.472 6.768 8.64 8.424-.576.756-1.26 1.944-1.692 2.88-.864-.54-1.764-1.188-2.628-1.908v2.088h-4.032v2.484h6.588zm-22.5 4.896-1.62.36c-.108-1.548-.648-3.96-1.224-5.796l1.512-.288c.648 1.8 1.224 4.212 1.332 5.724zm34.92-3.456c1.548 0 3.276-2.304 4.932-7.812.9-2.808 1.584-6.048 1.944-9.18-6.408 1.044-10.152 6.624-10.152 11.016 0 4.104 1.836 5.976 3.276 5.976zm9.576 6.876-2.124-3.384c1.26-.108 2.304-.288 3.168-.504 4.572-1.044 8.64-4.356 8.64-10.116 0-5.184-3.096-9.252-8.568-9.936-.504 3.204-1.152 6.66-2.124 10.008-2.16 7.272-5.112 11.34-8.676 11.34-3.528 0-6.768-3.996-6.768-9.936 0-7.92 7.02-14.796 15.948-14.796 8.568 0 14.004 5.976 14.004 13.464 0 7.452-4.788 12.636-13.5 13.86zm45.396-25.416v-2.376h-10.944v2.376zm0 4.644v-2.376h-10.944v2.376zm3.204-9.468v11.952h-17.208v-11.952zm-19.296 17.316-3.924 1.224v9.324c0 1.656-.324 2.556-1.26 3.06-.972.54-2.412.648-4.68.648-.072-.792-.468-2.232-.9-3.096 1.44.036 2.772.036 3.168.036.432 0 .612-.144.612-.648v-8.352l-3.78 1.152-.756-3.24c1.26-.324 2.844-.756 4.536-1.224v-7.236h-4.176v-3.096h4.176v-6.948h3.06v6.948h3.816v3.096h-3.816v6.336l3.456-1.008zm12.168 5.976v5.004c.972.144 1.944.18 2.988.18s5.724 0 7.056-.036c-.396.72-.828 2.124-.936 2.952h-6.192c-5.004 0-8.748-.9-11.088-5.652-.972 2.52-2.304 4.572-4.068 6.156-.504-.54-1.764-1.584-2.52-2.016 3.132-2.484 4.68-6.516 5.256-11.592l3.024.36c-.18 1.332-.396 2.592-.684 3.78.936 2.592 2.304 4.14 4.032 4.968v-10.512h-8.64v-2.736h20.772v2.736h-9v3.744h7.2v2.664zm20.556-24.372 3.132 1.008c-.972 2.52-2.196 5.112-3.564 7.488v24.444h-3.276v-19.296c-.972 1.332-1.98 2.556-2.988 3.636-.324-.828-1.296-2.628-1.836-3.42 3.384-3.348 6.588-8.568 8.532-13.86zm7.956 23.58 3.168 1.008c-1.764 3.132-4.536 6.264-6.984 8.28-.612-.612-1.908-1.62-2.664-2.124 2.52-1.764 4.968-4.5 6.48-7.164zm7.956 1.548 2.7-1.476c2.34 2.304 4.932 5.4 6.192 7.524l-2.808 1.8c-1.188-2.196-3.744-5.472-6.084-7.848zm-5.508-14.652v8.1h6.192v-8.1zm9.468 8.1h5.256v3.276h-23.184v-3.276h5.184v-8.1h-4.32v-3.204h4.32v-6.984h3.276v6.984h6.192v-7.056h3.276v7.056h4.896v3.204h-4.896zm10.872-4.932-.828-7.164-.108-4.248h4.284l-.108 4.248-.828 7.164zm7.92 0-.828-7.164-.144-4.248h4.32l-.108 4.248-.828 7.164zm16.38 10.8c1.548 0 3.276-2.304 4.932-7.812.9-2.808 1.584-6.048 1.944-9.18-6.408 1.044-10.152 6.624-10.152 11.016 0 4.104 1.836 5.976 3.276 5.976zm9.576 6.876-2.124-3.384c1.26-.108 2.304-.288 3.168-.504 4.572-1.044 8.64-4.356 8.64-10.116 0-5.184-3.096-9.252-8.568-9.936-.504 3.204-1.152 6.66-2.124 10.008-2.16 7.272-5.112 11.34-8.676 11.34-3.528 0-6.768-3.996-6.768-9.936 0-7.92 7.02-14.796 15.948-14.796 8.568 0 14.004 5.976 14.004 13.464 0 7.452-4.788 12.636-13.5 13.86zm42.264-2.052h3.996c1.188 0 1.404-.72 1.548-5.184.72.576 2.16 1.116 3.024 1.368-.324 5.508-1.224 6.984-4.284 6.984h-4.68c-3.564 0-4.428-1.08-4.428-4.464v-9.72h-6.048c-.792 6.66-2.736 11.952-10.908 14.94-.396-.9-1.332-2.232-2.088-2.952 7.38-2.268 8.856-6.624 9.468-11.988h-8.928v-3.24h14.04v-6.624h-6.876c-.864 1.944-1.836 3.78-2.952 5.256-.792-.54-2.124-1.26-2.952-1.584 2.412-2.952 4.176-7.776 4.968-11.412l3.42.648c-.36 1.224-.756 2.556-1.224 3.888h5.616v-5.256h3.384v5.256h11.412v3.204h-11.412v6.624h14.076v3.24h-9.612v9.72c0 1.116.216 1.296 1.44 1.296zm26.676-23.76c4.068.612 11.232.468 14.94-.036v3.672c-4.068.396-10.8.432-14.94 0zm-1.224 14.544 3.24.288c-.288 1.224-.432 2.196-.432 3.168 0 1.62 1.188 2.88 5.508 2.88 3.204 0 5.904-.288 8.892-.936l.072 3.816c-2.232.432-5.184.72-9.036.72-6.048 0-8.856-2.088-8.856-5.544 0-1.404.288-2.844.612-4.392zm-8.964-17.46 3.996.324c-.252.684-.612 2.088-.756 2.736-.612 2.916-1.764 9.612-1.764 13.428 0 1.26.072 2.448.252 3.744.54-1.44 1.26-3.168 1.8-4.464l1.872 1.44c-.972 2.7-2.232 6.516-2.556 8.316-.108.468-.216 1.224-.18 1.62 0 .36.036.9.072 1.332l-3.24.216c-.72-2.484-1.368-6.696-1.368-11.52 0-5.328 1.152-11.376 1.548-14.22.144-.9.288-2.016.324-2.952zm42.48 27.144-3.06 2.592c-2.268-2.772-5.328-5.832-7.848-7.956l2.952-2.592c2.556 2.088 5.904 5.472 7.956 7.956zm37.008-23.076 1.26 1.512c-.468.648-1.116 1.656-1.692 2.556-.036.576-.108 1.188-.144 1.764 3.78-2.988 7.632-4.104 10.944-4.104 5.184 0 9.54 3.636 9.576389 9.252.035611 7.2-4.896389 11.196-13.176389 12.816l-1.62-3.42c6.12-.9 11.088-3.564 11.088-9.468 0-2.772-2.196-5.868-6.408-5.868-3.96 0-7.524 1.908-10.656 4.824-.072 1.296-.108 2.556-.108 3.672 0 3.096-.036 5.652.144 8.892.036.648.144 1.692.216 2.412h-3.888c.036-.612.108-1.764.108-2.34.036-3.312.072-5.364.144-9.324-1.656 2.448-3.744 5.544-5.256 7.596l-2.232-3.132c1.98-2.448 5.868-7.596 7.776-10.476l.18-3.096c-1.656.216-4.572.612-6.732.9l-.36-3.672c.9.036 1.656 0 2.664-.036 1.116-.072 2.952-.288 4.68-.54.108-1.548.18-2.7.18-3.096 0-.9 0-1.908-.18-2.88l4.212.144c-.18.9-.468 2.808-.72 5.112zm41.652 9.216v-3.312c1.908-.216 4.356-.36 6.66-.36 2.052 0 4.212.108 6.228.324l-.108 3.42c-1.8-.216-3.924-.432-6.048-.432-2.34 0-4.536.108-6.732.36zm2.52-10.224v3.564c-2.232.504-4.716.9-7.164 1.188-.324 1.548-.72 3.132-1.116 4.644-1.296 5.04-3.672 12.384-5.616 16.416l-3.96-1.332c2.16-3.636 4.716-10.98 6.048-15.984.324-1.08.612-2.268.864-3.42-1.008.036-1.944.072-2.844.072-1.656 0-2.952-.072-4.248-.144l-.072-3.528c1.728.216 2.988.288 4.356.288 1.116 0 2.304-.036 3.564-.144.18-1.044.36-1.98.432-2.628.144-1.152.18-2.448.108-3.24l4.356.324c-.252.9-.54 2.34-.684 3.06l-.432 2.088c2.16-.288 4.356-.72 6.408-1.224zm-4.5 15.372 3.384.324c-.288 1.116-.504 2.232-.504 3.096 0 1.62.864 3.06 5.4 3.06 2.34 0 4.788-.288 7.128-.72l-.108 3.636c-1.98.288-4.356.504-7.056.504-5.796 0-8.784-1.908-8.784-5.436 0-1.476.252-2.988.54-4.464zm26.964-19.08 4.536.036c-.216 1.296-.324 2.808-.396 4.068-.144 3.96-.432 12.168-.432 17.136 0 3.744 2.376 5.04 5.436 5.04 6.264 0 9.972-3.528 12.528-7.344l2.556 3.132c-2.376 3.384-7.164 7.992-15.156 7.992-5.436 0-9.072-2.34-9.072-8.244 0-5.076.36-14.256.36-17.712 0-1.476-.108-2.916-.36-4.104zm47.016 13.932v-3.312c1.908-.216 4.356-.36 6.66-.36 2.052 0 4.212.108 6.228.324l-.108 3.42c-1.8-.216-3.924-.432-6.048-.432-2.34 0-4.536.108-6.732.36zm2.52-10.224v3.564c-2.232.504-4.716.9-7.164 1.188-.324 1.548-.72 3.132-1.116 4.644-1.296 5.04-3.672 12.384-5.616 16.416l-3.96-1.332c2.16-3.636 4.716-10.98 6.048-15.984.324-1.08.612-2.268.864-3.42-1.008.036-1.944.072-2.844.072-1.656 0-2.952-.072-4.248-.144l-.072-3.528c1.728.216 2.988.288 4.356.288 1.116 0 2.304-.036 3.564-.144.18-1.044.36-1.98.432-2.628.144-1.152.18-2.448.108-3.24l4.356.324c-.252.9-.54 2.34-.684 3.06l-.432 2.088c2.16-.288 4.356-.72 6.408-1.224zm-4.5 15.372 3.384.324c-.288 1.116-.504 2.232-.504 3.096 0 1.62.864 3.06 5.4 3.06 2.34 0 4.788-.288 7.128-.72l-.108 3.636c-1.98.288-4.356.504-7.056.504-5.796 0-8.784-1.908-8.784-5.436 0-1.476.252-2.988.54-4.464zm46.98-15.984.036 3.42c-3.924.684-9.648 1.296-14.292 1.512-.576 2.628-1.296 5.544-1.98 7.452 3.024-1.944 5.832-2.736 9.504-2.736 5.724 0 9.252 2.988 9.252 7.344 0 7.668-7.632 10.512-18.756 9.324l-1.008-3.636c8.064 1.188 16.02 0 16.02-5.616 0-2.412-2.052-4.32-5.904-4.32-4.212 0-7.992 1.44-10.26 4.212-.396.504-.72 1.008-1.044 1.62l-3.348-1.188c1.764-3.456 3.204-8.388 4.104-12.384-2.34-.036-4.572-.144-6.516-.324v-3.528c2.052.36 4.824.612 7.02.612h.144c.144-.756.252-1.404.324-1.944.144-1.296.216-2.16.144-3.204l4.032.18c-.324 1.08-.54 2.232-.72 3.276l-.324 1.584c4.176-.18 9.252-.72 13.572-1.656zm42.912-.756-2.376 1.008c-.756-1.548-1.908-3.6-2.952-4.968l2.34-.972c.936 1.332 2.304 3.6 2.988 4.932zm-23.58-2.52 4.212.432c-.18.756-.396 1.656-.54 2.448-.18 1.08-.504 2.808-.828 4.428 1.44-.108 2.736-.18 3.564-.18 3.42 0 6.048 1.44 6.048 6.408 0 4.212-.54 9.864-2.016 12.924-1.188 2.412-3.024 3.096-5.508 3.096-1.368 0-3.06-.252-4.248-.54l-.612-3.744c1.476.432 3.42.756 4.392.756 1.26 0 2.268-.324 2.916-1.692 1.08-2.232 1.584-6.696 1.584-10.404 0-3.06-1.368-3.564-3.636-3.564-.72 0-1.908.072-3.24.18-1.296 5.256-3.816 13.428-7.344 19.116l-3.708-1.476c3.564-4.752 6.12-12.42 7.38-17.244-1.62.18-3.06.324-3.888.432-.936.108-2.52.324-3.528.504l-.36-3.888c1.224.072 2.232.036 3.456 0 1.152-.036 3.06-.18 5.04-.36.504-2.628.864-5.328.864-7.632zm19.404 4.068-2.376 1.008c2.16 3.24 4.788 9 5.868 12.06l-3.564 1.692c-1.008-3.816-3.708-10.08-6.228-13.104l3.348-1.476c.18.252.36.504.576.792-.72-1.44-1.872-3.6-2.88-4.968l2.34-.972c.9 1.296 2.196 3.564 2.916 4.968zm13.932 21.24h17.784v-5.148h-17.784zm17.784-13.5h-17.784v5.184h17.784zm0-8.28h-17.784v5.112h17.784zm-21.168-3.276h24.696v30.708h-3.528v-2.376h-17.784v2.376h-3.384zm44.244 13.14.432 3.096-4.5 1.296v9.684c0 1.728-.36 2.628-1.404 3.132-1.08.504-2.628.612-5.04.576-.108-.828-.576-2.196-.972-3.06 1.512.072 2.988.072 3.42.036.504 0 .684-.144.684-.684v-8.712c-1.548.468-3.024.864-4.356 1.224l-.864-3.24c1.44-.36 3.24-.756 5.22-1.296v-7.164h-4.716v-3.096h4.716v-6.984h3.312v6.984h3.924v3.096h-3.924v6.228c1.332-.36 2.7-.72 4.068-1.116zm15.696 4.68h-10.584v3.024h10.584zm-10.584 8.784h10.584v-3.132h-10.584zm-3.168 4.32v-15.876h17.064v15.696h-3.312v-1.44h-10.584v1.62zm5.976-21.492h7.272c1.872 0 2.16-.648 2.412-4.32.756.54 2.16 1.008 3.024 1.224-.432 4.86-1.44 6.12-5.22 6.12h-7.74c-4.5 0-5.688-.972-5.688-4.5v-9.936h3.312v5.076c3.96-.864 8.136-2.088 10.692-3.276l2.484 2.448c-3.6 1.476-8.676 2.7-13.176 3.528v2.16c0 1.26.432 1.476 2.628 1.476zm28.332 6.768c0 1.98 1.512 3.168 3.24 3.168 1.836 0 3.204-1.476 2.736-4.86-.576-1.152-1.584-1.656-2.772-1.656-1.62 0-3.204 1.224-3.204 3.348zm19.332-12.348-.036 3.384c-2.124-.108-5.472-.18-10.656-.18.036 1.908.036 3.996.036 5.58.828 1.296 1.26 2.916 1.26 4.752 0 4.752-2.52 10.332-10.98 12.78l-3.06-3.024c4.176-.936 7.452-2.484 9.18-5.148-.72.324-1.548.504-2.484.504-2.88 0-6.012-2.16-6.012-6.228 0-3.744 3.06-6.408 6.66-6.408.72 0 1.368.072 1.98.252l-.036-3.024c-5.4.072-11.232.288-15.66.576l-.108-3.456c4.032-.036 10.656-.252 15.732-.324-.036-.756-.036-1.404-.072-1.8-.072-.9-.18-2.088-.288-2.592h4.104c-.072.468-.18 2.088-.18 2.592-.036.432-.036 1.044-.036 1.764zm12.924-3.384c4.716.576 14.688 2.628 19.224 4.212l-1.476 3.528c-4.284-1.584-14.04-3.744-19.08-4.392zm-1.62 9.576c5.004.828 13.932 2.736 18.432 4.356l-1.404 3.492c-4.176-1.584-13.14-3.636-18.36-4.428zm-1.908 10.404c6.084.936 16.812 3.456 21.744 5.364l-1.584 3.528c-4.788-2.052-15.804-4.5-21.6-5.364zm46.98-13.356c.648 1.512 2.412 6.228 2.88 7.812l-3.384 1.224c-.432-1.692-2.052-6.192-2.88-7.92zm9.18 1.044 3.96 1.26c-.324.9-.54 1.548-.684 2.16-.972 3.816-2.52 7.632-5.04 10.836-3.312 4.248-7.776 7.128-11.844 8.712l-2.988-3.06c4.068-1.152 8.82-3.888 11.808-7.596 2.484-3.096 4.284-7.776 4.788-12.312zm-17.568.828c.828 1.656 2.628 6.228 3.312 8.172l-3.42 1.26c-.612-1.908-2.484-6.804-3.276-8.208zm37.584-8.892c2.232 1.26 6.3 3.924 7.992 5.148l-2.124 3.096c-1.836-1.332-5.688-3.888-7.92-5.148zm-5.94 25.668c3.996-.684 8.388-2.016 12.168-4.104 6.012-3.42 10.872-8.244 13.788-13.356l2.16 3.816c-3.204 4.896-8.208 9.504-14.04 12.888-3.636 2.124-8.676 3.852-11.952 4.464zm.468-17.496c2.268 1.224 6.372 3.744 8.064 4.932l-2.088 3.204c-1.908-1.368-5.724-3.816-8.028-5.04zm58.68 22.176h-3.6c.036-.324.036-.9.036-1.44h-14.112c-1.08 0-2.412.072-3.024.072v-3.528c.612.072 1.764.144 3.024.144h14.112v-5.688h-12.312c-1.332 0-2.772 0-3.564.072v-3.42c.828.036 2.232.108 3.528.108h12.348v-5.292h-12.708c-1.116 0-3.276.072-3.996.144v-3.492c.792.108 2.88.144 3.996.144h13.788c.828 0 1.944-.036 2.448-.036-.036.432-.036 1.368-.036 2.088v17.964c0 .576.036 1.584.072 2.16zm16.236-29.124c2.556 1.692 7.2 5.436 9.216 7.524l-2.844 2.916c-1.872-1.908-6.336-5.796-9-7.632zm-3.708 24.084c6.012-.9 10.692-2.916 14.148-5.04 5.796-3.564 10.296-8.964 12.492-13.572l2.196 3.924c-2.592 4.644-7.02 9.576-12.636 13.032-3.636 2.232-8.208 4.356-13.788 5.364zm37.116-25.128 3.924.36c-.252.612-.576 2.088-.72 2.736-.648 2.88-1.728 10.296-1.728 14.112 0 1.26.072 2.448.252 3.744.504-1.476 1.26-3.204 1.8-4.5l1.836 1.44c-.936 2.664-2.16 6.3-2.556 8.136-.108.468-.18 1.188-.18 1.62.036.36.036.9.072 1.332l-3.168.216c-.72-2.484-1.404-6.48-1.404-11.304 0-5.328 1.152-12.096 1.584-14.94.108-.9.252-2.016.288-2.952zm18.072 22.14v-.972c-1.08-.288-2.16-.468-3.312-.468-2.376 0-3.996 1.044-3.996 2.52 0 1.656 1.584 2.484 3.852 2.484 2.628 0 3.456-1.332 3.456-3.564zm10.404 1.62-1.908 2.952c-1.656-1.548-3.276-2.88-4.932-3.888v.108c0 3.312-1.584 6.12-6.552 6.12-4.824 0-7.632-2.016-7.632-5.436 0-3.276 2.844-5.724 7.596-5.724 1.008 0 1.98.072 2.88.216-.108-2.484-.252-5.544-.324-8.316-1.008.036-2.016.072-3.024.072-2.052 0-3.996-.108-6.084-.216l-.036-3.384c2.052.18 4.032.288 6.156.288 1.008 0 1.98-.036 2.988-.072 0-1.764-.036-3.276-.036-4.176 0-.612-.072-1.584-.216-2.268h4.068c-.108.72-.18 1.476-.216 2.196-.036.9-.072 2.412-.108 4.032 2.088-.18 4.068-.432 5.904-.792v3.492c-1.836.288-3.852.504-5.904.648.072 3.564.288 6.768.396 9.504 2.952 1.188 5.184 3.024 6.984 4.644zm-1056.312 56.724v-23.148h11.592v3.096h-8.244v20.052zm44.064-21.276v2.7h-16.416v-2.7zm-21.6-1.476 3.132 1.008c-.972 2.412-2.196 4.86-3.528 7.164v24.696h-3.168v-19.872c-1.152 1.548-2.34 2.952-3.528 4.176-.324-.756-1.296-2.556-1.836-3.384 3.528-3.312 6.912-8.496 8.928-13.788zm19.296 24.192h-11.844v4.5h11.844zm-15.048 8.748v-11.376h18.396v11.268h-3.348v-1.44h-11.844v1.548zm.432-13.716v-2.664h17.46v2.664zm17.568-7.704v2.7h-17.568v-2.7zm-20.448-5.04h23.076v2.772h-23.076zm44.424 12.636h8.712v-5.328h-8.712zm-11.304 0h7.956v-5.328h-7.812v1.44c0 1.224-.036 2.556-.144 3.888zm7.956-13.536h-7.812v5.076h7.812zm12.06 5.076v-5.076h-8.712v5.076zm3.348-8.28v26.388c0 1.944-.468 2.952-1.764 3.456-1.332.54-3.42.612-6.732.576-.144-.9-.684-2.376-1.116-3.24 2.304.108 4.68.072 5.364.072.648 0 .9-.216.9-.9v-6.444h-8.712v10.296h-3.348v-10.296h-8.28c-.576 3.96-1.872 7.992-4.5 10.908-.504-.648-1.872-1.8-2.628-2.196 3.924-4.356 4.284-10.728 4.284-15.804v-12.816zm25.812 22.752h-3.456c.108-1.224.144-3.24.144-5.004-3.024 1.692-4.932 3.312-4.932 5.4 0 2.448 2.304 2.916 5.904 2.916 2.88 0 6.768-.36 9.9-.936l-.108 3.636c-2.592.324-6.696.612-9.9.612-5.328 0-9.468-1.224-9.468-5.652 0-4.392 4.284-7.164 8.388-9.252-.432-1.26-1.584-1.764-2.88-1.764-2.232 0-4.392 1.152-5.904 2.556-1.044 1.008-2.088 2.304-3.276 3.816l-3.06-2.304c4.176-3.96 6.588-7.416 8.064-10.404h-1.044c-1.476 0-3.96-.072-5.94-.216v-3.348c1.872.252 4.428.396 6.12.396h2.088c.468-1.62.756-3.168.828-4.284l3.708.288c-.216.936-.504 2.304-1.008 3.852 3.528-.144 7.272-.468 10.548-1.044v3.312c-3.492.54-7.884.828-11.736.972-.72 1.584-1.656 3.24-2.7 4.644 1.116-.648 3.132-1.044 4.536-1.044 2.232 0 4.068 1.044 4.752 3.024 2.196-1.044 4.032-1.8 5.724-2.556 1.188-.54 2.232-1.008 3.384-1.584l1.404 3.312c-.972.288-2.52.864-3.6 1.296-1.836.684-4.14 1.656-6.624 2.808.036 2.016.108 4.86.144 6.552zm30.528-11.916h-8.532v1.728h8.532zm-8.604 5.616h8.604v-1.8h-8.532c0 .576-.036 1.188-.072 1.8zm9.216 6.732h-7.308v3.528h7.308zm2.376-4.32h-11.808c-.072.612-.144 1.26-.252 1.872h12.636v9.576h-2.952v-1.08h-7.308v1.296h-2.88v-7.56c-.648 2.484-1.692 4.896-3.276 6.84-.468-.576-1.656-1.656-2.268-2.016 3.312-4.104 3.672-9.756 3.672-13.824v-5.544h14.436zm-10.116-14.436h7.2c-1.26-1.26-2.7-2.556-3.996-3.6-.9 1.116-1.944 2.376-3.204 3.6zm1.188-6.48h3.024c2.592 1.944 5.904 4.752 7.704 6.588l-2.196 2.52c-.576-.648-1.296-1.404-2.124-2.268v1.98h-8.532v-1.44c-1.44 1.368-3.096 2.7-5.04 3.924-.396-.72-1.404-1.872-2.052-2.34 4.32-2.556 7.488-6.084 9.216-8.964zm14.688 3.924v19.872h-3.132v-19.872zm4.752-3.6h3.24v28.152c0 1.98-.432 2.952-1.692 3.528-1.224.54-3.24.648-6.408.612-.144-.9-.648-2.412-1.08-3.384 2.268.108 4.356.072 5.076.072.576-.036.864-.252.864-.864zm27.18 6.444h-5.04c-.792 1.296-1.692 2.484-2.556 3.456-.648-.504-2.052-1.26-2.844-1.62 2.232-2.088 4.104-5.328 5.148-8.568l3.132.684c-.36 1.08-.828 2.16-1.296 3.168h3.456v-4.284h3.312v4.284h8.244v2.88h-8.244v3.888h9.756v2.844h-22.968v-2.844h9.9zm-3.564 11.88v4.788h10.764v-4.788zm14.256 7.524h-17.532v-10.224h17.532zm-20.988-20.232-2.628 2.196c-1.152-1.692-3.744-4.104-6.012-5.688l2.484-2.016c2.232 1.548 4.932 3.78 6.156 5.508zm-.972 7.632v11.376c1.584 2.484 4.536 3.636 8.496 3.78 3.996.144 11.988.036 16.488-.252-.396.792-.936 2.376-1.116 3.42-4.068.18-11.304.252-15.408.072-4.572-.18-7.668-1.368-9.936-4.14-1.692 1.476-3.42 2.916-5.292 4.464l-1.728-3.456c1.62-1.008 3.528-2.34 5.22-3.708v-8.46h-4.608v-3.096zm34.488-11.952 4.536.036c-.216 1.296-.324 2.808-.396 4.068-.144 3.96-.432 12.168-.432 17.136 0 3.744 2.376 5.04 5.436 5.04 6.264 0 9.972-3.528 12.528-7.344l2.556 3.132c-2.376 3.384-7.164 7.992-15.156 7.992-5.436 0-9.072-2.34-9.072-8.244 0-5.076.36-14.256.36-17.712 0-1.476-.108-2.916-.36-4.104zm30.744 3.924c1.404-.036 2.628-.108 3.312-.18 2.628-.216 8.964-.828 15.516-1.404 3.816-.288 7.38-.504 9.828-.576v3.6c-1.98 0-5.04.036-6.912.54-4.752 1.404-7.884 6.48-7.884 10.692 0 6.48 6.048 8.64 11.952 8.892l-1.296 3.852c-6.984-.36-14.328-4.104-14.328-11.988 0-5.364 3.132-9.684 6.048-11.556-3.132.36-11.88 1.224-15.84 2.052zm45.612 23.868-3.06 2.592c-2.268-2.772-5.328-5.832-7.848-7.956l2.952-2.592c2.556 2.088 5.904 5.472 7.956 7.956zm57.06-18.792-2.016 2.952c-1.98-1.62-5.904-3.888-8.316-4.968l1.8-2.772c2.556 1.116 6.768 3.492 8.532 4.788zm-13.176-5.472.108 3.348c-1.764.468-3.96.936-6.336 1.26-1.728 5.004-4.824 11.232-7.74 15.156l-3.456-1.764c2.916-3.492 5.904-8.964 7.452-12.996-.864.036-1.692.072-2.556.072-1.368 0-2.844-.036-4.284-.144l-.252-3.312c1.404.144 3.096.216 4.536.216 1.188 0 2.412-.036 3.672-.144.54-1.98.972-4.176 1.044-6.048l3.924.36c-.288 1.224-.756 3.204-1.296 5.22 1.8-.288 3.564-.72 5.184-1.224zm1.44 19.908c0-.36 0-.756-.036-1.26-1.008-.288-2.124-.432-3.276-.432-2.376 0-3.924 1.044-3.924 2.484 0 1.512 1.224 2.556 3.672 2.556 2.664 0 3.564-1.512 3.564-3.348zm-.54-12.852h3.6c-.108 1.512-.072 2.736-.036 4.176.036 1.152.144 3.204.252 5.22 3.06 1.116 5.58 2.916 7.38 4.5l-1.908 3.06c-1.404-1.26-3.204-2.808-5.328-3.96v.972c0 3.024-1.836 5.472-6.516 5.472-4.14 0-7.488-1.764-7.488-5.472 0-3.348 3.024-5.724 7.452-5.724 1.044 0 2.016.072 2.988.252-.144-2.808-.324-6.156-.396-8.496zm29.628 6.048.324.54c1.44-2.484 2.772-5.724 3.744-8.928-2.556.18-4.788 1.008-6.804 2.268.864 2.412 1.872 4.716 2.736 6.12zm-1.8 3.672-.432-.684c-1.08-1.692-2.232-4.212-3.276-6.948-2.052 2.124-3.276 5.076-3.276 7.596 0 2.088.864 3.384 2.34 3.384 1.548 0 3.168-1.44 4.644-3.348zm7.38-20.412 3.924.396c-.252.9-.54 2.34-.72 3.132-.144.612-.288 1.26-.468 1.908 5.652 1.116 9.504 5.58 9.504 11.736 0 7.308-5.22 11.664-12.744 12.744l-2.16-3.24c7.596-.684 11.268-4.608 11.268-9.648 0-4.356-2.556-7.596-6.696-8.46-1.296 4.356-2.988 8.748-5.04 11.772.648.864 1.368 1.656 2.088 2.34l-2.844 2.304c-.504-.576-1.008-1.152-1.476-1.764-2.268 2.628-4.392 4.14-7.02 4.14-2.844 0-5.292-2.34-5.292-6.732 0-4.068 2.16-8.388 5.4-11.124-.396-1.044-.72-2.088-1.044-3.096-.36-1.224-.756-2.34-1.296-3.456l3.744-1.152c.216 1.044.504 2.232.756 3.276.216.756.468 1.62.756 2.484 2.88-1.584 5.724-2.304 8.676-2.376.18-.756.36-1.476.468-2.16.144-.864.252-2.196.216-3.024zm26.604 3.276.9-3.42c3.204 1.008 10.872 2.412 14.004 2.736l-.828 3.492c-3.492-.468-11.34-2.088-14.076-2.808zm.576 3.348c-.468 2.232-1.08 7.02-1.368 9.216 3.312-2.664 7.056-3.888 11.052-3.888 5.796 0 9.468 3.564 9.468 7.776 0 6.444-5.472 11.052-19.368 9.9l-1.116-3.708c11.016 1.404 16.596-1.548 16.596-6.264 0-2.628-2.448-4.464-5.868-4.464-4.428 0-8.1 1.62-10.512 4.464-.576.684-.9 1.296-1.188 1.908l-3.312-.792c.684-3.348 1.584-10.62 1.8-14.652zm36.18-6.876 4.212.432c-.18.756-.36 1.656-.504 2.448-.216 1.08-.54 2.808-.864 4.428 1.476-.108 2.736-.18 3.564-.18 3.456 0 6.084 1.44 6.084 6.408 0 4.212-.54 9.864-2.052 12.924-1.152 2.412-2.988 3.096-5.508 3.096-1.332 0-3.06-.252-4.212-.54l-.612-3.744c1.44.432 3.42.756 4.392.756 1.26 0 2.268-.324 2.916-1.692 1.08-2.232 1.584-6.696 1.584-10.404 0-3.06-1.368-3.564-3.636-3.564-.72 0-1.908.072-3.24.18-1.332 5.256-3.852 13.428-7.344 19.116l-3.708-1.476c3.528-4.752 6.084-12.42 7.344-17.244-1.62.18-3.06.324-3.852.432-.936.108-2.556.324-3.564.504l-.324-3.888c1.188.072 2.232.036 3.42 0 1.152-.036 3.06-.18 5.076-.36.504-2.628.864-5.328.828-7.632zm13.14 5.436 3.348-1.44c2.196 2.988 5.256 9.612 6.408 12.96l-3.528 1.692c-1.008-3.78-3.708-10.152-6.228-13.212zm44.568 3.924-2.016 2.952c-1.98-1.62-5.904-3.888-8.316-4.968l1.8-2.772c2.556 1.116 6.768 3.492 8.532 4.788zm-13.176-5.472.108 3.348c-1.764.468-3.96.936-6.336 1.26-1.728 5.004-4.824 11.232-7.74 15.156l-3.456-1.764c2.916-3.492 5.904-8.964 7.452-12.996-.864.036-1.692.072-2.556.072-1.368 0-2.844-.036-4.284-.144l-.252-3.312c1.404.144 3.096.216 4.536.216 1.188 0 2.412-.036 3.672-.144.54-1.98.972-4.176 1.044-6.048l3.924.36c-.288 1.224-.756 3.204-1.296 5.22 1.8-.288 3.564-.72 5.184-1.224zm1.44 19.908c0-.36 0-.756-.036-1.26-1.008-.288-2.124-.432-3.276-.432-2.376 0-3.924 1.044-3.924 2.484 0 1.512 1.224 2.556 3.672 2.556 2.664 0 3.564-1.512 3.564-3.348zm-.54-12.852h3.6c-.108 1.512-.072 2.736-.036 4.176.036 1.152.144 3.204.252 5.22 3.06 1.116 5.58 2.916 7.38 4.5l-1.908 3.06c-1.404-1.26-3.204-2.808-5.328-3.96v.972c0 3.024-1.836 5.472-6.516 5.472-4.14 0-7.488-1.764-7.488-5.472 0-3.348 3.024-5.724 7.452-5.724 1.044 0 2.016.072 2.988.252-.144-2.808-.324-6.156-.396-8.496zm31.428 7.632-2.052 2.736c-.828-1.044-2.448-2.772-3.924-4.248v14.328h-3.312v-13.284c-1.62 1.584-3.348 2.952-5.04 4.032-.324-.864-1.152-2.448-1.656-3.096 4.104-2.34 8.244-6.516 10.692-11.016h-9.432v-3.06h5.436v-6.624h3.312v6.624h2.484l.576-.108 1.872 1.26c-1.08 2.736-2.664 5.364-4.464 7.74 1.692 1.368 4.68 3.96 5.508 4.716zm10.008 8.496h8.028v3.312h-20.16v-3.312h8.712v-14.112h-7.272v-3.24h7.272v-11.088h3.42v11.088h7.272v3.24h-7.272zm19.404-17.82h15.768c-3.24-2.304-6.192-5.004-8.1-7.632-1.728 2.52-4.464 5.22-7.668 7.632zm-.684 3.096v-2.592c-1.98 1.404-4.104 2.7-6.264 3.744-.36-.756-1.26-2.016-1.98-2.736 6.156-2.808 12.024-7.992 14.724-12.384h3.456c3.816 5.292 9.792 9.684 15.408 11.88-.792.828-1.548 2.016-2.124 3.024-2.088-1.008-4.284-2.268-6.372-3.744v2.808zm-6.192 6.876v-3.132h29.556v3.132h-16.488c-1.188 2.412-2.52 5.112-3.816 7.416 3.996-.144 8.46-.324 12.852-.504-1.332-1.512-2.772-3.024-4.176-4.284l2.88-1.548c3.276 2.772 6.696 6.588 8.352 9.252l-3.06 1.908c-.396-.684-.936-1.476-1.584-2.34-8.568.432-17.712.828-23.832 1.08l-.432-3.276 5.328-.18c1.188-2.232 2.484-5.112 3.348-7.524zm54.468 4.32h-3.456c.108-1.224.144-3.24.144-5.004-3.024 1.692-4.932 3.312-4.932 5.4 0 2.448 2.304 2.916 5.904 2.916 2.88 0 6.768-.36 9.9-.936l-.108 3.636c-2.592.324-6.696.612-9.9.612-5.328 0-9.468-1.224-9.468-5.652 0-4.392 4.284-7.164 8.388-9.252-.432-1.26-1.584-1.764-2.88-1.764-2.232 0-4.392 1.152-5.904 2.556-1.044 1.008-2.088 2.304-3.276 3.816l-3.06-2.304c4.176-3.96 6.588-7.416 8.064-10.404h-1.044c-1.476 0-3.96-.072-5.94-.216v-3.348c1.872.252 4.428.396 6.12.396h2.088c.468-1.62.756-3.168.828-4.284l3.708.288c-.216.936-.504 2.304-1.008 3.852 3.528-.144 7.272-.468 10.548-1.044v3.312c-3.492.54-7.884.828-11.736.972-.72 1.584-1.656 3.24-2.7 4.644 1.116-.648 3.132-1.044 4.536-1.044 2.232 0 4.068 1.044 4.752 3.024 2.196-1.044 4.032-1.8 5.724-2.556 1.188-.54 2.232-1.008 3.384-1.584l1.404 3.312c-.972.288-2.52.864-3.6 1.296-1.836.684-4.14 1.656-6.624 2.808.036 2.016.108 4.86.144 6.552zm30.528-11.916h-8.532v1.728h8.532zm-8.604 5.616h8.604v-1.8h-8.532c0 .576-.036 1.188-.072 1.8zm9.216 6.732h-7.308v3.528h7.308zm2.376-4.32h-11.808c-.072.612-.144 1.26-.252 1.872h12.636v9.576h-2.952v-1.08h-7.308v1.296h-2.88v-7.56c-.648 2.484-1.692 4.896-3.276 6.84-.468-.576-1.656-1.656-2.268-2.016 3.312-4.104 3.672-9.756 3.672-13.824v-5.544h14.436zm-10.116-14.436h7.2c-1.26-1.26-2.7-2.556-3.996-3.6-.9 1.116-1.944 2.376-3.204 3.6zm1.188-6.48h3.024c2.592 1.944 5.904 4.752 7.704 6.588l-2.196 2.52c-.576-.648-1.296-1.404-2.124-2.268v1.98h-8.532v-1.44c-1.44 1.368-3.096 2.7-5.04 3.924-.396-.72-1.404-1.872-2.052-2.34 4.32-2.556 7.488-6.084 9.216-8.964zm14.688 3.924v19.872h-3.132v-19.872zm4.752-3.6h3.24v28.152c0 1.98-.432 2.952-1.692 3.528-1.224.54-3.24.648-6.408.612-.144-.9-.648-2.412-1.08-3.384 2.268.108 4.356.072 5.076.072.576-.036.864-.252.864-.864zm24.012 27.864c.9 0 1.728-.036 2.52-.144-.288-2.628-1.836-4.356-4.212-4.356-1.476 0-2.556.864-2.556 1.98 0 1.548 1.836 2.52 4.248 2.52zm7.524-25.812 1.944 2.592c-.72.468-1.548 1.008-2.196 1.476-1.836 1.296-6.156 5.076-8.676 7.164 1.44-.468 2.808-.612 4.212-.612 5.976 0 10.404 3.672 10.404 8.64 0 5.724-4.572 9.792-12.564 9.792-4.932 0-8.244-2.232-8.244-5.436 0-2.628 2.412-5.076 5.904-5.076 4.428 0 6.984 2.844 7.488 6.264 2.412-1.08 3.744-2.988 3.744-5.58 0-3.348-3.384-5.724-7.74-5.724-5.688 0-9.072 2.664-13.284 7.128l-2.628-2.664c2.772-2.268 7.236-6.012 9.324-7.74 1.98-1.656 6.084-5.076 7.884-6.624-1.872.072-7.956.324-9.828.432-.9.072-1.836.144-2.628.252l-.108-3.708c.9.108 1.98.18 2.844.18 1.872 0 9.936-.216 11.88-.396 1.224-.144 1.872-.216 2.268-.36zm23.364 7.452v23.148h-11.592v-3.096h8.244v-20.052zm31.536-1.908v-3.708c2.592.288 5.904.432 9.54.432 3.456 0 7.272-.216 9.936-.504v3.744c-2.448.18-6.588.432-9.9.432-3.672 0-6.732-.144-9.576-.396zm-1.548 10.656 3.672.324c-.396 1.368-.648 2.592-.648 3.888 0 2.484 2.484 4.248 7.92 4.248 4.896 0 9.468-.54 12.348-1.368l.036 3.924c-2.808.72-7.2 1.224-12.276 1.224-7.632 0-11.772-2.556-11.772-7.2 0-1.944.396-3.636.72-5.04zm56.088-13.248 1.944 3.276c-.9.54-1.908 1.08-3.06 1.656-2.34 1.188-7.056 3.42-10.44 5.652-3.168 2.052-5.148 4.284-5.148 6.876 0 2.772 2.628 4.392 7.956 4.392 3.78 0 8.604-.54 11.52-1.224l-.036 4.032c-2.808.504-6.804.9-11.34.9-6.876 0-11.952-2.016-11.952-7.704 0-3.78 2.412-6.696 6.048-9.288-1.62-3.024-3.42-7.02-5.076-10.836l3.564-1.44c1.404 3.816 3.132 7.452 4.644 10.26 3.132-1.872 6.66-3.636 8.496-4.68 1.188-.684 2.052-1.188 2.88-1.872zm16.164 15.624c3.132 0 5.616 2.556 5.616 5.652s-2.484 5.616-5.616 5.616c-3.096 0-5.616-2.52-5.616-5.616s2.52-5.652 5.616-5.652zm0 9.108c1.908 0 3.456-1.548 3.456-3.456s-1.548-3.456-3.456-3.456-3.456 1.548-3.456 3.456 1.548 3.456 3.456 3.456zm-795.492 119.748v-26.496h4.788l4.86 13.392c.612 1.764 1.152 3.564 1.764 5.364h.18c.612-1.8 1.116-3.6 1.728-5.364l4.788-13.392h4.824v26.496h-3.888v-13.104c0-2.376.324-5.796.54-8.208h-.144l-2.124 6.12-4.608 12.636h-2.592l-4.644-12.636-2.088-6.12h-.144c.18 2.412.504 5.832.504 8.208v13.104zm29.88 0v-26.496h15.66v3.492h-11.484v7.38h9.72v3.528h-9.72v8.568h11.88v3.528zm25.776-23.148v9.108h3.996c3.852 0 5.94-1.584 5.94-4.788s-2.088-4.32-5.94-4.32zm15.012 23.148h-4.716l-6.012-10.692h-4.284v10.692h-4.176v-26.496h8.676c5.472 0 9.576 1.944 9.576 7.668 0 4.104-2.196 6.552-5.544 7.596zm4.392 0v-26.496h8.028c5.904 0 10.116 2.016 10.116 7.992 0 5.796-4.212 8.46-9.972 8.46h-3.996v10.044zm4.176-13.392h3.6c4.248 0 6.264-1.62 6.264-5.112s-2.196-4.644-6.408-4.644h-3.456zm23.112 2.556h7.236l-1.044-3.564c-.9-2.88-1.692-5.832-2.52-8.82h-.144c-.756 3.024-1.584 5.94-2.448 8.82zm10.476 10.836-2.232-7.56h-9.216l-2.268 7.56h-4.248l8.784-26.496h4.824l8.784 26.496zm12.276 0v-10.044l-7.956-16.452h4.464l3.06 7.02c.828 1.98 1.584 3.816 2.484 5.832h.144c.864-2.016 1.728-3.852 2.52-5.832l3.096-7.02h4.356l-7.992 16.452v10.044zm33.984.468c-6.66 0-11.772-4.968-11.772-13.644 0-8.64 5.256-13.824 11.952-13.824 3.312 0 5.904 1.584 7.524 3.348l-2.268 2.664c-1.368-1.404-3.024-2.376-5.184-2.376-4.572 0-7.74 3.816-7.74 10.044 0 6.3 2.952 10.152 7.632 10.152 2.412 0 4.284-1.08 5.868-2.808l2.232 2.628c-2.124 2.448-4.824 3.816-8.244 3.816zm23.004 0c-6.804 0-11.52-5.292-11.52-13.824s4.716-13.644 11.52-13.644 11.556 5.112 11.556 13.644-4.752 13.824-11.556 13.824zm0-3.636c4.392 0 7.272-3.96 7.272-10.188s-2.88-10.008-7.272-10.008-7.236 3.78-7.236 10.008 2.844 10.188 7.236 10.188zm17.064 3.168v-26.496h4.284l8.784 15.552 2.772 5.616h.18c-.216-2.736-.54-5.94-.54-8.82v-12.348h3.96v26.496h-4.284l-8.784-15.624-2.772-5.544h-.18c.216 2.736.54 5.796.54 8.676v12.492zm26.424 0v-26.496h15.696v3.492h-11.52v8.1h9.792v3.492h-9.792v11.412zm20.376 0v-26.496h15.66v3.492h-11.484v7.38h9.72v3.528h-9.72v8.568h11.88v3.528zm25.776-23.148v9.108h3.996c3.852 0 5.94-1.584 5.94-4.788s-2.088-4.32-5.94-4.32zm15.012 23.148h-4.716l-6.012-10.692h-4.284v10.692h-4.176v-26.496h8.676c5.472 0 9.576 1.944 9.576 7.668 0 4.104-2.196 6.552-5.544 7.596zm4.392 0v-26.496h15.66v3.492h-11.484v7.38h9.72v3.528h-9.72v8.568h11.88v3.528zm21.6 0v-26.496h4.284l8.784 15.552 2.772 5.616h.18c-.216-2.736-.54-5.94-.54-8.82v-12.348h3.96v26.496h-4.284l-8.784-15.624-2.772-5.544h-.18c.216 2.736.54 5.796.54 8.676v12.492zm36.756.468c-6.66 0-11.772-4.968-11.772-13.644 0-8.64 5.256-13.824 11.952-13.824 3.312 0 5.904 1.584 7.524 3.348l-2.268 2.664c-1.368-1.404-3.024-2.376-5.184-2.376-4.572 0-7.74 3.816-7.74 10.044 0 6.3 2.952 10.152 7.632 10.152 2.412 0 4.284-1.08 5.868-2.808l2.232 2.628c-2.124 2.448-4.824 3.816-8.244 3.816zm12.924-.468v-26.496h15.66v3.492h-11.484v7.38h9.72v3.528h-9.72v8.568h11.88v3.528zm27.792 0v-2.412c7.812-6.912 11.844-12.06 11.844-16.416 0-2.88-1.548-4.86-4.5-4.86-2.088 0-3.816 1.332-5.22 2.952l-2.34-2.304c2.268-2.448 4.608-3.96 8.064-3.96 4.86 0 7.992 3.168 7.992 7.956 0 5.112-4.068 10.404-9.684 15.768 1.368-.144 3.024-.252 4.32-.252h6.624v3.528zm29.196.468c-5.22 0-8.568-4.608-8.568-13.824 0-9.18 3.348-13.644 8.568-13.644 5.184 0 8.568 4.5 8.568 13.644 0 9.216-3.384 13.824-8.568 13.824zm0-3.276c2.7 0 4.608-2.88 4.608-10.548 0-7.596-1.908-10.368-4.608-10.368s-4.608 2.772-4.608 10.368c0 7.668 1.908 10.548 4.608 10.548zm13.356 2.808v-3.42h5.796v-18.432h-4.752v-2.628c2.484-.468 4.248-1.08 5.76-2.016h3.132v23.076h5.184v3.42zm27.108-12.96c1.62 0 3.456-.936 5.04-3.24-.396-5.22-2.376-7.596-5.256-7.596-2.268 0-4.068 2.052-4.068 5.508 0 3.384 1.512 5.328 4.284 5.328zm-7.704 10.62 2.232-2.556c1.044 1.188 2.664 1.98 4.356 1.98 3.204 0 5.976-2.592 6.228-10.152-1.548 1.908-3.816 3.096-5.832 3.096-4.428 0-7.416-2.772-7.416-8.316 0-5.256 3.6-8.712 7.884-8.712 5.076 0 9.18 4.104 9.18 12.852 0 10.44-4.752 14.616-9.864 14.616-3.06 0-5.22-1.224-6.768-2.808zm19.008 7.596v-2.556h19.296v2.556zm30.816-4.788c-3.636 0-7.02-1.44-9.432-3.888l2.448-2.88c1.908 1.908 4.5 3.132 7.056 3.132 3.204 0 5.004-1.512 5.004-3.744 0-2.412-1.8-3.168-4.248-4.248l-3.672-1.584c-2.556-1.08-5.4-3.096-5.4-6.948 0-4.176 3.672-7.308 8.712-7.308 3.096 0 6.012 1.296 8.028 3.348l-2.196 2.664c-1.656-1.476-3.492-2.376-5.832-2.376-2.7 0-4.464 1.296-4.464 3.42 0 2.268 2.124 3.132 4.284 3.996l3.636 1.548c3.132 1.332 5.4 3.276 5.4 7.164 0 4.248-3.528 7.704-9.324 7.704zm14.328-.468v-26.496h15.66v3.492h-11.484v7.38h9.72v3.528h-9.72v8.568h11.88v3.528zm21.6 0v-26.496h8.028c5.904 0 10.116 2.016 10.116 7.992 0 5.796-4.212 8.46-9.972 8.46h-3.996v10.044zm4.176-13.392h3.6c4.248 0 6.264-1.62 6.264-5.112s-2.196-4.644-6.408-4.644h-3.456zm20.988 13.86c-1.548 0-2.772-1.188-2.772-2.88s1.224-2.952 2.772-2.952 2.772 1.26 2.772 2.952-1.224 2.88-2.772 2.88zm21.672-25.092c4.068.612 11.232.468 14.94-.036v3.672c-4.068.396-10.8.432-14.94 0zm-1.224 14.544 3.24.288c-.288 1.224-.432 2.196-.432 3.168 0 1.62 1.188 2.88 5.508 2.88 3.204 0 5.904-.288 8.892-.936l.072 3.816c-2.232.432-5.184.72-9.036.72-6.048 0-8.856-2.088-8.856-5.544 0-1.404.288-2.844.612-4.392zm-8.964-17.46 3.996.324c-.252.684-.612 2.088-.756 2.736-.612 2.916-1.764 9.612-1.764 13.428 0 1.26.072 2.448.252 3.744.54-1.44 1.26-3.168 1.8-4.464l1.872 1.44c-.972 2.7-2.232 6.516-2.556 8.316-.108.468-.216 1.224-.18 1.62 0 .36.036.9.072 1.332l-3.24.216c-.72-2.484-1.368-6.696-1.368-11.52 0-5.328 1.152-11.376 1.548-14.22.144-.9.288-2.016.324-2.952zm32.868 3.276c1.404-.036 2.628-.108 3.312-.18 2.628-.216 8.964-.828 15.516-1.404 3.816-.288 7.38-.504 9.828-.576v3.6c-1.98 0-5.04.036-6.912.54-4.752 1.404-7.884 6.48-7.884 10.692 0 6.48 6.048 8.64 11.952 8.892l-1.296 3.852c-6.984-.36-14.328-4.104-14.328-11.988 0-5.364 3.132-9.684 6.048-11.556-3.132.36-11.88 1.224-15.84 2.052zm45.612 23.868-3.06 2.592c-2.268-2.772-5.328-5.832-7.848-7.956l2.952-2.592c2.556 2.088 5.904 5.472 7.956 7.956zm33.696-27.252c4.716.576 14.688 2.628 19.224 4.212l-1.476 3.528c-4.284-1.584-14.04-3.744-19.08-4.392zm-1.62 9.576c5.004.828 13.932 2.736 18.432 4.356l-1.404 3.492c-4.176-1.584-13.14-3.636-18.36-4.428zm-1.908 10.404c6.084.936 16.812 3.456 21.744 5.364l-1.584 3.528c-4.788-2.052-15.804-4.5-21.6-5.364zm46.98-13.356c.648 1.512 2.412 6.228 2.88 7.812l-3.384 1.224c-.432-1.692-2.052-6.192-2.88-7.92zm9.18 1.044 3.96 1.26c-.324.9-.54 1.548-.684 2.16-.972 3.816-2.52 7.632-5.04 10.836-3.312 4.248-7.776 7.128-11.844 8.712l-2.988-3.06c4.068-1.152 8.82-3.888 11.808-7.596 2.484-3.096 4.284-7.776 4.788-12.312zm-17.568.828c.828 1.656 2.628 6.228 3.312 8.172l-3.42 1.26c-.612-1.908-2.484-6.804-3.276-8.208zm37.584-8.892c2.232 1.26 6.3 3.924 7.992 5.148l-2.124 3.096c-1.836-1.332-5.688-3.888-7.92-5.148zm-5.94 25.668c3.996-.684 8.388-2.016 12.168-4.104 6.012-3.42 10.872-8.244 13.788-13.356l2.16 3.816c-3.204 4.896-8.208 9.504-14.04 12.888-3.636 2.124-8.676 3.852-11.952 4.464zm.468-17.496c2.268 1.224 6.372 3.744 8.064 4.932l-2.088 3.204c-1.908-1.368-5.724-3.816-8.028-5.04zm58.68 22.176h-3.6c.036-.324.036-.9.036-1.44h-14.112c-1.08 0-2.412.072-3.024.072v-3.528c.612.072 1.764.144 3.024.144h14.112v-5.688h-12.312c-1.332 0-2.772 0-3.564.072v-3.42c.828.036 2.232.108 3.528.108h12.348v-5.292h-12.708c-1.116 0-3.276.072-3.996.144v-3.492c.792.108 2.88.144 3.996.144h13.788c.828 0 1.944-.036 2.448-.036-.036.432-.036 1.368-.036 2.088v17.964c0 .576.036 1.584.072 2.16zm16.236-29.124c2.556 1.692 7.2 5.436 9.216 7.524l-2.844 2.916c-1.872-1.908-6.336-5.796-9-7.632zm-3.708 24.084c6.012-.9 10.692-2.916 14.148-5.04 5.796-3.564 10.296-8.964 12.492-13.572l2.196 3.924c-2.592 4.644-7.02 9.576-12.636 13.032-3.636 2.232-8.208 4.356-13.788 5.364zm37.476-17.604h10.008v-2.556h3.384v2.556h10.116v-3.564h-23.508zm27.612 14.076h-12.492c2.52 3.42 6.876 5.472 12.924 6.264-.72.648-1.548 2.016-2.016 2.916-7.02-1.188-11.592-3.996-14.364-8.964-1.944 3.456-5.904 6.588-13.824 8.856-.36-.684-1.332-1.98-2.052-2.664 6.624-1.692 10.188-3.96 12.096-6.408h-11.592v-2.916h13.14c.288-.972.468-1.908.54-2.88h-9.612v-2.772h9.648v-2.736h-10.224v-2.088h-3.06v-7.2h13.356v-3.312h3.456v3.312h13.392v7.2h-2.772v2.088h-10.764v2.736h10.188v2.772h-10.224c-.072.972-.216 1.944-.432 2.88h14.688zm16.596-3.024.468 2.988c-4.5 1.368-9.288 2.736-12.888 3.78l-.828-3.204c1.512-.324 3.384-.828 5.4-1.368v-8.064h-4.32v-3.096h4.32v-7.02h-4.68v-3.096h12.348v3.096h-4.428v7.02h4.068v3.096h-4.068v7.164zm4.5-5.472v3.024h10.656v-3.024zm0-5.616v3.024h10.656v-3.024zm0-5.58v2.988h10.656v-2.988zm10.152 25.668h2.196c.756 0 .9-.54 1.008-4.176.648.54 1.98 1.044 2.808 1.26-.288 4.608-1.08 5.796-3.42 5.796h-3.132c-2.88 0-3.564-.936-3.564-3.924v-7.596h-2.952c-.648 5.76-2.448 9.756-9.756 11.988-.324-.792-1.188-2.124-1.872-2.736 6.444-1.692 7.812-4.752 8.352-9.252h-2.952v-19.8h17.1v19.8h-4.716v7.56c0 .972.144 1.08.9 1.08zm23.292-24.336c4.068.612 11.232.468 14.94-.036v3.672c-4.068.396-10.8.432-14.94 0zm-1.224 14.544 3.24.288c-.288 1.224-.432 2.196-.432 3.168 0 1.62 1.188 2.88 5.508 2.88 3.204 0 5.904-.288 8.892-.936l.072 3.816c-2.232.432-5.184.72-9.036.72-6.048 0-8.856-2.088-8.856-5.544 0-1.404.288-2.844.612-4.392zm-8.964-17.46 3.996.324c-.252.684-.612 2.088-.756 2.736-.612 2.916-1.764 9.612-1.764 13.428 0 1.26.072 2.448.252 3.744.54-1.44 1.26-3.168 1.8-4.464l1.872 1.44c-.972 2.7-2.232 6.516-2.556 8.316-.108.468-.216 1.224-.18 1.62 0 .36.036.9.072 1.332l-3.24.216c-.72-2.484-1.368-6.696-1.368-11.52 0-5.328 1.152-11.376 1.548-14.22.144-.9.288-2.016.324-2.952zm51.768 13.824h-7.812v6.048h7.812zm3.096 9.036h-10.908v2.52h-3.06v-14.508h13.968zm7.668-19.44v22.824c0 1.944-.468 2.988-1.8 3.564-1.404.504-3.636.576-6.876.576-.144-.936-.648-2.484-1.152-3.42 2.376.108 4.86.108 5.544.072.72-.036.936-.216.936-.828v-19.512h-22.464v23.652h-3.312v-26.928h9.828c.792-1.944 1.656-4.32 2.088-6.156l4.248.684c-.792 1.836-1.728 3.816-2.628 5.472zm8.856-3.924 4.176.396c-.252.756-.54 1.872-.72 2.592-1.008 4.608-2.232 12.24-1.08 17.46.504-1.332 1.188-3.276 1.8-4.86l1.872 1.188c-.936 2.736-1.98 6.336-2.376 8.244-.108.504-.216 1.224-.18 1.62 0 .36.072.9.072 1.332l-3.096.36c-.756-2.196-1.944-6.984-1.944-11.412 0-5.832.828-11.304 1.26-14.256.144-.9.18-1.944.216-2.664zm27.54 6.336v3.708c-1.548.216-3.456.396-5.544.54v1.332c0 8.28-.288 13.824-7.632 18.324l-3.312-2.592c1.224-.54 2.844-1.512 3.78-2.52 3.348-3.096 3.708-6.732 3.708-13.248v-1.116c-1.44.036-2.88.072-4.284.072-1.656 0-3.996-.108-5.652-.216v-3.6c1.656.252 3.672.36 5.58.36 1.368 0 2.844-.036 4.284-.072-.036-2.16-.108-4.284-.18-5.22-.072-.756-.216-1.656-.36-2.232h4.14c-.108.684-.108 1.44-.144 2.232s0 2.88.036 5.004c2.052-.18 3.996-.432 5.58-.756zm22.212 7.452v-3.312c1.908-.216 4.356-.36 6.66-.36 2.052 0 4.212.108 6.228.324l-.108 3.42c-1.8-.216-3.924-.432-6.048-.432-2.34 0-4.536.108-6.732.36zm2.52-10.224v3.564c-2.232.504-4.716.9-7.164 1.188-.324 1.548-.72 3.132-1.116 4.644-1.296 5.04-3.672 12.384-5.616 16.416l-3.96-1.332c2.16-3.636 4.716-10.98 6.048-15.984.324-1.08.612-2.268.864-3.42-1.008.036-1.944.072-2.844.072-1.656 0-2.952-.072-4.248-.144l-.072-3.528c1.728.216 2.988.288 4.356.288 1.116 0 2.304-.036 3.564-.144.18-1.044.36-1.98.432-2.628.144-1.152.18-2.448.108-3.24l4.356.324c-.252.9-.54 2.34-.684 3.06l-.432 2.088c2.16-.288 4.356-.72 6.408-1.224zm-4.5 15.372 3.384.324c-.288 1.116-.504 2.232-.504 3.096 0 1.62.864 3.06 5.4 3.06 2.34 0 4.788-.288 7.128-.72l-.108 3.636c-1.98.288-4.356.504-7.056.504-5.796 0-8.784-1.908-8.784-5.436 0-1.476.252-2.988.54-4.464zm31.32 8.712-3.06 2.592c-2.268-2.772-5.328-5.832-7.848-7.956l2.952-2.592c2.556 2.088 5.904 5.472 7.956 7.956zm-1074.924 36.924 1.26 1.512c-.468.648-1.116 1.656-1.692 2.556-.036.576-.108 1.188-.144 1.764 3.78-2.988 7.632-4.104 10.944-4.104 5.184 0 9.54 3.636 9.576389 9.252.035611 7.2-4.896389 11.196-13.176389 12.816l-1.62-3.42c6.12-.9 11.088-3.564 11.088-9.468 0-2.772-2.196-5.868-6.408-5.868-3.96 0-7.524 1.908-10.656 4.824-.072 1.296-.108 2.556-.108 3.672 0 3.096-.036 5.652.144 8.892.036.648.144 1.692.216 2.412h-3.888c.036-.612.108-1.764.108-2.34.036-3.312.072-5.364.144-9.324-1.656 2.448-3.744 5.544-5.256 7.596l-2.232-3.132c1.98-2.448 5.868-7.596 7.776-10.476l.18-3.096c-1.656.216-4.572.612-6.732.9l-.36-3.672c.9.036 1.656 0 2.664-.036 1.116-.072 2.952-.288 4.68-.54.108-1.548.18-2.7.18-3.096 0-.9 0-1.908-.18-2.88l4.212.144c-.18.9-.468 2.808-.72 5.112zm41.652 9.216v-3.312c1.908-.216 4.356-.36 6.66-.36 2.052 0 4.212.108 6.228.324l-.108 3.42c-1.8-.216-3.924-.432-6.048-.432-2.34 0-4.536.108-6.732.36zm2.52-10.224v3.564c-2.232.504-4.716.9-7.164 1.188-.324 1.548-.72 3.132-1.116 4.644-1.296 5.04-3.672 12.384-5.616 16.416l-3.96-1.332c2.16-3.636 4.716-10.98 6.048-15.984.324-1.08.612-2.268.864-3.42-1.008.036-1.944.072-2.844.072-1.656 0-2.952-.072-4.248-.144l-.072-3.528c1.728.216 2.988.288 4.356.288 1.116 0 2.304-.036 3.564-.144.18-1.044.36-1.98.432-2.628.144-1.152.18-2.448.108-3.24l4.356.324c-.252.9-.54 2.34-.684 3.06l-.432 2.088c2.16-.288 4.356-.72 6.408-1.224zm-4.5 15.372 3.384.324c-.288 1.116-.504 2.232-.504 3.096 0 1.62.864 3.06 5.4 3.06 2.34 0 4.788-.288 7.128-.72l-.108 3.636c-1.98.288-4.356.504-7.056.504-5.796 0-8.784-1.908-8.784-5.436 0-1.476.252-2.988.54-4.464zm26.964-19.08 4.536.036c-.216 1.296-.324 2.808-.396 4.068-.144 3.96-.432 12.168-.432 17.136 0 3.744 2.376 5.04 5.436 5.04 6.264 0 9.972-3.528 12.528-7.344l2.556 3.132c-2.376 3.384-7.164 7.992-15.156 7.992-5.436 0-9.072-2.34-9.072-8.244 0-5.076.36-14.256.36-17.712 0-1.476-.108-2.916-.36-4.104zm47.016 13.932v-3.312c1.908-.216 4.356-.36 6.66-.36 2.052 0 4.212.108 6.228.324l-.108 3.42c-1.8-.216-3.924-.432-6.048-.432-2.34 0-4.536.108-6.732.36zm2.52-10.224v3.564c-2.232.504-4.716.9-7.164 1.188-.324 1.548-.72 3.132-1.116 4.644-1.296 5.04-3.672 12.384-5.616 16.416l-3.96-1.332c2.16-3.636 4.716-10.98 6.048-15.984.324-1.08.612-2.268.864-3.42-1.008.036-1.944.072-2.844.072-1.656 0-2.952-.072-4.248-.144l-.072-3.528c1.728.216 2.988.288 4.356.288 1.116 0 2.304-.036 3.564-.144.18-1.044.36-1.98.432-2.628.144-1.152.18-2.448.108-3.24l4.356.324c-.252.9-.54 2.34-.684 3.06l-.432 2.088c2.16-.288 4.356-.72 6.408-1.224zm-4.5 15.372 3.384.324c-.288 1.116-.504 2.232-.504 3.096 0 1.62.864 3.06 5.4 3.06 2.34 0 4.788-.288 7.128-.72l-.108 3.636c-1.98.288-4.356.504-7.056.504-5.796 0-8.784-1.908-8.784-5.436 0-1.476.252-2.988.54-4.464zm46.98-15.984.036 3.42c-3.924.684-9.648 1.296-14.292 1.512-.576 2.628-1.296 5.544-1.98 7.452 3.024-1.944 5.832-2.736 9.504-2.736 5.724 0 9.252 2.988 9.252 7.344 0 7.668-7.632 10.512-18.756 9.324l-1.008-3.636c8.064 1.188 16.02 0 16.02-5.616 0-2.412-2.052-4.32-5.904-4.32-4.212 0-7.992 1.44-10.26 4.212-.396.504-.72 1.008-1.044 1.62l-3.348-1.188c1.764-3.456 3.204-8.388 4.104-12.384-2.34-.036-4.572-.144-6.516-.324v-3.528c2.052.36 4.824.612 7.02.612h.144c.144-.756.252-1.404.324-1.944.144-1.296.216-2.16.144-3.204l4.032.18c-.324 1.08-.54 2.232-.72 3.276l-.324 1.584c4.176-.18 9.252-.72 13.572-1.656zm17.532 19.404c1.548 0 3.276-2.304 4.932-7.812.9-2.808 1.584-6.048 1.944-9.18-6.408 1.044-10.152 6.624-10.152 11.016 0 4.104 1.836 5.976 3.276 5.976zm9.576 6.876-2.124-3.384c1.26-.108 2.304-.288 3.168-.504 4.572-1.044 8.64-4.356 8.64-10.116 0-5.184-3.096-9.252-8.568-9.936-.504 3.204-1.152 6.66-2.124 10.008-2.16 7.272-5.112 11.34-8.676 11.34-3.528 0-6.768-3.996-6.768-9.936 0-7.92 7.02-14.796 15.948-14.796 8.568 0 14.004 5.976 14.004 13.464 0 7.452-4.788 12.636-13.5 13.86zm43.236-13.14.612-.18 2.628.792c-1.728 4.14-4.356 9.828-6.588 14.292l-3.564-.936c1.764-3.348 3.78-7.56 5.22-10.8h-19.368v-3.168zm-16.02-7.128h14.904c-3.06-2.592-5.832-5.436-7.632-7.956-1.692 2.484-4.248 5.328-7.272 7.956zm5.4-11.304h3.348c3.78 5.436 9.936 10.692 15.48 13.5-.792.828-1.584 1.944-2.196 2.952-2.304-1.368-4.68-3.096-6.948-5.004v2.952h-15.444v-2.808c-2.124 1.836-4.464 3.564-6.84 5.004-.432-.792-1.404-1.98-2.124-2.664 6.12-3.492 12.024-9.324 14.724-13.932zm28.548.18 3.024 1.152c-2.16 3.096-5.472 6.48-8.532 8.604-.396-.648-1.26-1.836-1.8-2.412 2.7-1.872 5.796-4.86 7.308-7.344zm.792 7.452 2.952 1.044c-.828 1.512-1.836 3.024-2.916 4.5v20.124h-3.132v-16.38c-1.152 1.26-2.34 2.412-3.528 3.348-.324-.684-1.296-2.34-1.836-3.06 3.168-2.304 6.444-5.94 8.46-9.576zm9.468 13.608-.072.108c1.044 1.548 2.448 2.952 4.068 4.176 1.692-1.224 3.096-2.664 4.14-4.284zm10.512-2.664 2.052.936c-1.296 3.168-3.312 5.688-5.832 7.74 2.736 1.476 5.976 2.556 9.468 3.168-.684.684-1.584 2.016-2.016 2.88-3.816-.828-7.236-2.232-10.152-4.14-3.168 1.944-6.84 3.312-10.692 4.176-.324-.828-1.008-2.196-1.62-2.844 3.456-.612 6.804-1.728 9.684-3.312-1.368-1.152-2.556-2.484-3.6-3.924-1.224 1.08-2.52 1.98-3.816 2.772-.432-.648-1.512-1.944-2.232-2.484 3.276-1.692 6.444-4.284 8.532-7.272-2.88.072-5.544.144-7.776.216l-.288-3.024c1.584 0 3.456-.036 5.544-.072.648-.54 1.368-1.152 2.052-1.764-1.656-1.728-4.32-3.852-6.624-5.364l2.016-2.16c.648.432 1.368.864 2.088 1.368 1.512-1.62 3.168-3.744 4.212-5.364l2.916 1.512c-1.584 1.872-3.384 3.924-4.968 5.472 1.044.792 1.98 1.584 2.736 2.34 2.304-2.232 4.5-4.572 6.12-6.624l2.988 1.656c-2.736 2.88-6.156 6.192-9.36 8.856 2.628-.036 5.4-.072 8.208-.144-.756-1.008-1.548-1.944-2.304-2.808l2.628-1.404c2.16 2.34 4.68 5.58 5.688 7.776l-2.772 1.62c-.324-.72-.828-1.584-1.404-2.52-2.664.108-5.4.216-7.992.288-.54.864-1.116 1.728-1.764 2.556h7.704zm16.488 6.12c1.548 0 3.276-2.304 4.932-7.812.9-2.808 1.584-6.048 1.944-9.18-6.408 1.044-10.152 6.624-10.152 11.016 0 4.104 1.836 5.976 3.276 5.976zm9.576 6.876-2.124-3.384c1.26-.108 2.304-.288 3.168-.504 4.572-1.044 8.64-4.356 8.64-10.116 0-5.184-3.096-9.252-8.568-9.936-.504 3.204-1.152 6.66-2.124 10.008-2.16 7.272-5.112 11.34-8.676 11.34-3.528 0-6.768-3.996-6.768-9.936 0-7.92 7.02-14.796 15.948-14.796 8.568 0 14.004 5.976 14.004 13.464 0 7.452-4.788 12.636-13.5 13.86zm30.6-12.204-1.8 2.448c-.468-1.152-1.512-3.132-2.448-4.824v16.2h-3.096v-15.228c-1.08 3.42-2.412 6.588-3.852 8.64-.324-.9-1.116-2.16-1.584-2.88 2.124-2.952 4.176-8.28 5.148-12.852h-4.392v-3.096h4.68v-7.596h3.096v7.596h3.852v3.096h-3.852v2.124c1.008 1.332 3.672 5.4 4.248 6.372zm11.376 5.58h4.248v-2.232h-4.248zm-7.02-2.232v2.232h3.996v-2.232zm3.996-4.356h-3.996v2.052h3.996zm7.272 0h-4.248v2.052h4.248zm-8.172-8.676v2.016h4.932v-2.016zm0-4.32v1.98h4.932v-1.98zm13.428 19.584v2.52h-2.124v2.376c0 1.512-.324 2.268-1.368 2.772-1.044.396-2.664.432-4.968.432-.144-.792-.54-1.944-.9-2.7 1.512.072 3.06.072 3.528.036.432 0 .576-.144.576-.576v-2.34h-11.268v5.58h-3.06v-5.58h-2.304v-2.52h2.304v-9h7.056v-1.764h-8.748v-2.484h4.716v-2.016h-3.168v-2.34h3.168v-1.98h-3.924v-2.412h3.924v-2.772h3.132v2.772h4.932v-2.772h3.132v2.772h4.284v2.412h-4.284v1.98h3.744v2.34h-3.744v2.016h5.004v2.484h-9.144v1.764h7.38v9zm30.528-17.46v-2.736h-7.956v2.736zm0 5.364v-2.808h-7.956v2.808zm0 5.364v-2.844h-7.956v2.844zm3.204-16.164v18.828h-14.22v-18.828zm-17.748 20.052 2.304-1.8c1.62 1.512 3.816 3.636 4.932 4.932l-2.448 2.052c-1.008-1.332-3.168-3.564-4.788-5.184zm-10.188 9.216-3.024-1.512c1.404-1.908 2.592-4.896 3.276-7.38l2.952 1.188c-.72 2.484-1.872 5.688-3.204 7.704zm6.84-10.044-3.168.036v-8.424c-1.404 2.592-3.132 4.932-4.896 6.444-.504-.756-1.512-1.8-2.196-2.376 2.52-1.8 5.04-5.256 6.552-8.676h-5.688v-2.844h6.228v-5.148h3.168v5.148h5.4v2.844h-5.4v1.728c1.368.828 4.932 3.42 5.868 4.104l-1.8 2.736c-.864-.9-2.592-2.484-4.068-3.744zm4.176 8.208h6.48c1.692 0 1.944-.504 2.16-4.104.72.54 2.088 1.008 3.024 1.224-.468 4.752-1.404 5.868-4.932 5.868h-7.02c-4.32 0-5.436-.9-5.436-4.068v-5.364h3.312v5.328c0 .972.36 1.116 2.412 1.116zm11.484-6.228 2.916-1.368c1.476 2.232 3.456 5.292 4.392 7.128l-3.096 1.584c-.864-1.872-2.772-5.04-4.212-7.344zm22.68-6.552c0-2.304 1.872-4.176 4.176-4.176s4.176 1.872 4.176 4.176-1.872 4.176-4.176 4.176-4.176-1.872-4.176-4.176zm56.268-10.044-2.7 1.512c-.612-1.692-2.232-4.248-3.78-6.12l2.52-1.332c1.548 1.8 3.276 4.248 3.96 5.94zm-16.884-6.3 3.42.972c-1.224 2.448-2.7 5.184-3.852 6.912l-2.7-.9c1.152-1.908 2.484-4.86 3.132-6.984zm-4.644 5.904-2.988.756c-.144-1.584-.792-4.176-1.512-6.12l2.808-.648c.828 1.908 1.512 4.428 1.692 6.012zm-5.796.576-2.916 1.044c-.252-1.584-1.26-4.104-2.34-6.012l2.736-.864c1.116 1.764 2.232 4.212 2.52 5.832zm-1.26 9.324v2.736h3.996v-2.736zm0-5.112v2.7h3.996v-2.7zm10.8 2.7v-2.7h-3.96v2.7zm0 5.148v-2.736h-3.96v2.736zm3.96 8.208h-7.74v6.084h-3.204v-6.084h-7.884v-2.988h7.884v-2.664h-6.588v-12.96h16.452v12.96h-6.66v2.664h7.74zm10.764-13.5 2.52 1.476c-1.152 3.42-2.88 6.768-5.04 9.756.828 2.7 1.764 4.32 2.844 4.392.684 0 1.152-1.8 1.404-5.148.54.684 1.872 1.584 2.412 1.872-.792 5.724-2.34 7.236-3.816 7.164-2.268-.108-3.96-2.016-5.22-5.364-2.052 2.232-4.356 4.068-6.804 5.4-.54-.756-1.548-1.8-2.412-2.376 3.06-1.404 5.832-3.672 8.172-6.444-.72-3.024-1.26-6.696-1.656-10.908l-3.528.432-.396-3.132 3.672-.432c-.216-3.132-.396-6.444-.504-9.972h3.204c.072 3.348.18 6.552.396 9.576l8.028-.972.396 3.096-8.136 1.008c.252 2.916.612 5.58 1.044 7.848 1.44-2.268 2.592-4.752 3.42-7.272zm24.3 6.48h11.16c-2.016-1.116-3.888-2.484-5.508-3.96-1.764 1.512-3.672 2.844-5.652 3.96zm1.08 8.892h8.82v-5.94h-8.82zm-5.544-17.82v7.632c2.772-1.152 5.508-2.808 7.92-4.86-1.296-1.44-2.412-2.952-3.312-4.392-.972 1.188-2.052 2.232-3.096 3.132-.324-.396-.936-.972-1.512-1.512zm-5.04 11.916h2.412v-7.956h-2.412zm-4.5-7.956v7.956h2.34v-7.956zm2.34-9.936h-2.34v7.128h2.34zm4.572 7.128v-7.128h-2.412v7.128zm16.488-5.652h-7.056l-.324.468c.9 1.548 2.124 3.204 3.6 4.716 1.512-1.584 2.808-3.312 3.78-5.184zm2.196-2.952 2.16 1.08c-1.332 3.528-3.384 6.588-5.868 9.18 2.304 1.908 5.076 3.564 8.172 4.608-.684.612-1.692 1.944-2.16 2.808l-.756-.324v11.988h-3.24v-1.116h-8.82v1.152h-3.168v-11.916c-.432.216-.9.432-1.332.612-.252-.468-.648-1.044-1.044-1.548v5.724h-9.54v3.096h-2.52v-26.784h12.06v7.272c2.808-2.376 5.292-5.832 6.732-9.468l3.132.9c-.396.972-.864 1.944-1.368 2.88h6.984zm21.384 2.052c4.068.612 11.232.468 14.94-.036v3.672c-4.068.396-10.8.432-14.94 0zm-1.224 14.544 3.24.288c-.288 1.224-.432 2.196-.432 3.168 0 1.62 1.188 2.88 5.508 2.88 3.204 0 5.904-.288 8.892-.936l.072 3.816c-2.232.432-5.184.72-9.036.72-6.048 0-8.856-2.088-8.856-5.544 0-1.404.288-2.844.612-4.392zm-8.964-17.46 3.996.324c-.252.684-.612 2.088-.756 2.736-.612 2.916-1.764 9.612-1.764 13.428 0 1.26.072 2.448.252 3.744.54-1.44 1.26-3.168 1.8-4.464l1.872 1.44c-.972 2.7-2.232 6.516-2.556 8.316-.108.468-.216 1.224-.18 1.62 0 .36.036.9.072 1.332l-3.24.216c-.72-2.484-1.368-6.696-1.368-11.52 0-5.328 1.152-11.376 1.548-14.22.144-.9.288-2.016.324-2.952zm32.364 8.352c1.296-.252 2.808-.684 4.14-1.08 2.88-.9 9.972-3.456 15.228-3.456 6.12 0 10.98 3.564 10.98 9.792 0 8.352-8.136 12.96-19.836 13.572l-1.62-3.78c9.468-.216 17.46-3.024 17.46-9.864 0-3.564-2.556-6.336-7.128-6.336-5.58 0-14.364 3.78-17.604 5.112zm42.228-6.12c-.18 1.044-.36 2.88-.36 3.852-.036 2.232 0 5.256.252 8.028.54 5.616 1.98 9.36 4.356 9.36 1.8 0 3.348-3.888 4.14-7.164l2.88 3.348c-2.268 6.12-4.464 8.244-7.092 8.244-3.6 0-6.912-3.456-7.884-12.852-.36-3.132-.396-7.38-.396-9.54 0-.9-.036-2.376-.252-3.348zm18.252.9c3.276 4.14 5.904 11.988 6.372 17.784l-3.708 1.44c-.576-6.12-2.628-13.788-6.228-18.036zm12.024.144c1.404-.036 2.628-.108 3.312-.18 2.628-.216 8.964-.828 15.516-1.404 3.816-.288 7.38-.504 9.828-.576v3.6c-1.98 0-5.04.036-6.912.54-4.752 1.404-7.884 6.48-7.884 10.692 0 6.48 6.048 8.64 11.952 8.892l-1.296 3.852c-6.984-.36-14.328-4.104-14.328-11.988 0-5.364 3.132-9.684 6.048-11.556-3.132.36-11.88 1.224-15.84 2.052zm43.38 21.708c.756 0 1.188-.468 1.188-1.656 0-1.116-.072-3.168-.108-5.472-2.592 1.26-4.392 3.06-4.392 4.5 0 1.404 2.088 2.628 3.312 2.628zm4.284-12.852v1.224c2.592-.756 5.256-1.116 7.416-1.116 5.292 0 9.288 2.844 9.288 7.416 0 4.248-2.448 7.2-7.704 8.46-1.62.36-3.204.468-4.5.504l-1.296-3.6c1.44 0 2.952 0 4.284-.252 2.988-.54 5.616-2.124 5.616-5.148 0-2.736-2.484-4.248-5.724-4.248-2.52 0-4.932.432-7.308 1.188.036 2.952.144 5.94.144 7.344 0 3.78-1.404 4.86-3.492 4.86-3.096 0-7.848-2.808-7.848-6.264 0-3.024 3.636-6.156 7.848-7.992v-2.232c0-1.26 0-2.592.036-3.924-.864.072-1.656.108-2.34.108-1.584 0-3.276-.036-4.68-.18l-.108-3.456c2.016.252 3.42.288 4.716.288.756 0 1.584-.036 2.448-.072 0-1.62.036-2.916.036-3.564 0-.756-.108-2.16-.216-2.808h3.888c-.072.684-.18 1.872-.216 2.736s-.072 2.016-.144 3.276c2.52-.288 5.076-.792 7.02-1.368l.072 3.528c-2.052.468-4.68.9-7.164 1.188-.036 1.44-.072 2.844-.072 4.104zm9.648-6.804 1.584-2.736c2.628 1.332 6.624 3.708 8.424 5.112l-1.764 2.88c-1.728-1.584-6.012-4.068-8.244-5.256zm25.344-6.804v2.628h-10.296v-2.628zm-2.7 22.428h-5.004v5.184h5.004zm2.88-2.7v10.548h-7.884v1.548h-2.88v-12.096zm-10.692-2.376v-2.592h10.548v2.592zm10.548-7.488v2.592h-10.548v-2.592zm-12.24-2.34v-2.664h13.428v2.664zm28.332 19.548v-6.264h-9.468v6.264zm4.932-14.76h-8.1v5.472h6.48v13.896h-3.312v-1.584h-9.468v1.764h-3.204v-14.076h6.084v-5.472h-8.064v-3.168h8.064v-5.076c-2.16.252-4.32.504-6.372.648-.108-.828-.576-2.088-.972-2.844 5.4-.468 11.664-1.404 15.336-2.556l2.34 2.736c-1.98.576-4.392 1.08-6.912 1.512v5.58h8.1zm10.008-8.604c-.18 1.044-.36 2.88-.36 3.852-.036 2.232 0 5.256.252 8.028.54 5.616 1.98 9.36 4.356 9.36 1.8 0 3.348-3.888 4.14-7.164l2.88 3.348c-2.268 6.12-4.464 8.244-7.092 8.244-3.6 0-6.912-3.456-7.884-12.852-.36-3.132-.396-7.38-.396-9.54 0-.9-.036-2.376-.252-3.348zm18.252.9c3.276 4.14 5.904 11.988 6.372 17.784l-3.708 1.44c-.576-6.12-2.628-13.788-6.228-18.036zm28.296 10.152v-3.312c1.908-.216 4.356-.36 6.66-.36 2.052 0 4.212.108 6.228.324l-.108 3.42c-1.8-.216-3.924-.432-6.048-.432-2.34 0-4.536.108-6.732.36zm2.52-10.224v3.564c-2.232.504-4.716.9-7.164 1.188-.324 1.548-.72 3.132-1.116 4.644-1.296 5.04-3.672 12.384-5.616 16.416l-3.96-1.332c2.16-3.636 4.716-10.98 6.048-15.984.324-1.08.612-2.268.864-3.42-1.008.036-1.944.072-2.844.072-1.656 0-2.952-.072-4.248-.144l-.072-3.528c1.728.216 2.988.288 4.356.288 1.116 0 2.304-.036 3.564-.144.18-1.044.36-1.98.432-2.628.144-1.152.18-2.448.108-3.24l4.356.324c-.252.9-.54 2.34-.684 3.06l-.432 2.088c2.16-.288 4.356-.72 6.408-1.224zm-4.5 15.372 3.384.324c-.288 1.116-.504 2.232-.504 3.096 0 1.62.864 3.06 5.4 3.06 2.34 0 4.788-.288 7.128-.72l-.108 3.636c-1.98.288-4.356.504-7.056.504-5.796 0-8.784-1.908-8.784-5.436 0-1.476.252-2.988.54-4.464zm26.964-19.08 4.536.036c-.216 1.296-.324 2.808-.396 4.068-.144 3.96-.432 12.168-.432 17.136 0 3.744 2.376 5.04 5.436 5.04 6.264 0 9.972-3.528 12.528-7.344l2.556 3.132c-2.376 3.384-7.164 7.992-15.156 7.992-5.436 0-9.072-2.34-9.072-8.244 0-5.076.36-14.256.36-17.712 0-1.476-.108-2.916-.36-4.104zm45.396 23.76c0-.504 0-1.188-.036-2.016-1.044-.18-2.088-.288-3.204-.288-3.024 0-4.644 1.152-4.644 2.628 0 1.512 1.332 2.556 4.392 2.556 2.016 0 3.492-.576 3.492-2.88zm13.572 1.116-2.052 3.132c-2.016-1.872-4.752-3.888-7.956-5.184 0 .72.036 1.332.036 1.836 0 2.7-1.944 5.184-6.588 5.184-5.4 0-8.316-1.98-8.316-5.58 0-3.384 3.204-5.76 8.532-5.76.9 0 1.764.072 2.628.144-.072-1.332-.108-2.772-.144-4.068h-1.944c-2.268 0-6.3-.18-8.784-.468l.036-3.384c2.232.432 6.624.684 8.784.684h1.836v-4.5h-1.764c-2.376 0-6.012-.252-8.1-.54v-3.276c2.196.396 5.76.684 8.064.684h1.836v-2.016c0-.648-.072-1.692-.144-2.268h3.816c-.072.648-.18 1.44-.216 2.412 0 .396-.036 1.044-.036 1.764 2.988-.144 5.76-.432 8.892-.9l.036 3.276c-2.592.252-5.58.576-8.964.72v4.536c3.528-.18 6.66-.504 9.72-.936l.036 3.384c-3.312.396-6.264.612-9.684.756.036 1.62.144 3.312.252 4.86 4.608 1.296 8.136 3.816 10.188 5.508zm18.828-8.604c0 1.98 1.512 3.168 3.24 3.168 1.836 0 3.204-1.476 2.736-4.86-.576-1.152-1.584-1.656-2.772-1.656-1.62 0-3.204 1.224-3.204 3.348zm19.332-12.348-.036 3.384c-2.124-.108-5.472-.18-10.656-.18.036 1.908.036 3.996.036 5.58.828 1.296 1.26 2.916 1.26 4.752 0 4.752-2.52 10.332-10.98 12.78l-3.06-3.024c4.176-.936 7.452-2.484 9.18-5.148-.72.324-1.548.504-2.484.504-2.88 0-6.012-2.16-6.012-6.228 0-3.744 3.06-6.408 6.66-6.408.72 0 1.368.072 1.98.252l-.036-3.024c-5.4.072-11.232.288-15.66.576l-.108-3.456c4.032-.036 10.656-.252 15.732-.324-.036-.756-.036-1.404-.072-1.8-.072-.9-.18-2.088-.288-2.592h4.104c-.072.468-.18 2.088-.18 2.592-.036.432-.036 1.044-.036 1.764zm9.612 15.408c3.132 0 5.616 2.556 5.616 5.652s-2.484 5.616-5.616 5.616c-3.096 0-5.616-2.52-5.616-5.616s2.52-5.652 5.616-5.652zm0 9.108c1.908 0 3.456-1.548 3.456-3.456s-1.548-3.456-3.456-3.456-3.456 1.548-3.456 3.456 1.548 3.456 3.456 3.456z" fill="#221815" transform="translate(-119 -1313)"/></svg>