<svg fill="none" height="40" viewBox="0 0 153 40" width="153" xmlns="http://www.w3.org/2000/svg"><g clip-rule="evenodd" fill-rule="evenodd"><path d="m17.9908 6.04868 8.0039-6.04868 22.0053 10.0479-.0241 23.6434-7.9962 6.0316v-23.6222l-14.0082-6.40365-7.9798 6.03015-9.98748-4.5688v14.4435l-8.00422 6.0486v-24.15362l8.00422-6.04897zm8.0012 23.61762-8.0042 6.0489v-14.0929l8.0042-6.0262z" fill="#000"/><path d="m102.268 7.52259h-3.7004l1.8494-4.49892zm1.428 3.48761h1.117l-3.734-9.0102h-1.2907l-3.7338 9.0102h1.0838l1.0257-2.50916h4.5zm-13.7074-8.03162v3.43689h2.3569c1.4017 0 2.162-.57281 2.162-1.71844s-.7603-1.71845-2.162-1.71845zm0 4.40848v3.62324h-1.0451v-9.01016h3.4352c2.0376 0 3.2126 1.01133 3.2126 2.69689 0 1.68692-1.175 2.69003-3.2126 2.69003zm-21.205 3.62364h-1.0451v-7.85219l-3.1683 6.85459h-1.0976l-3.1614-6.80251v7.80011h-1.0451v-9.01015h1.5842l3.1752 6.80937 3.167-6.80937h1.5911zm9.0183 0h-6.3948v-9.01015h6.3368v.97159h-5.2917v3.01893h5.1285v.96474h-5.1285v3.08329h5.3497zm3.493-4.85889v-3.17926h2.5048c1.3644 0 2.1039.52759 2.1039 1.57045 0 1.04833-.7202 1.60881-2.1039 1.60881zm5.6939-1.60881c0-1.628-1.1308-2.54204-3.1753-2.54204h-3.5637v9.01014h1.0451v-3.91921h1.1487l3.2001 3.91921h1.2995l-3.2652-3.91921h.1493c1.9409 0 3.1615-.99215 3.1615-2.54889zm21.5742 2.69017v3.77813h-1.039v-3.79183l-3.596-5.21837h1.245l2.877 4.27281 2.876-4.27281h1.214zm-46.7521 21.68253c-1.5579 0-2.3569.8633-2.7855 1.4937l.7272.5797c.4285-.5934.9939-1.1265 2.0265-1.1265 1.2068 0 1.8828.8044 1.8828 1.8405 0 .7728-.3774 1.3895-.9359 1.9692l-3.4351 3.5917v.7784h5.7215v-.9456h-4.2341l2.7135-2.8449c.5917-.6248 1.2206-1.4293 1.2206-2.5488 0-1.5897-1.0575-2.7874-2.9015-2.7874zm5.2825 4.6215c0 2.3625 1.2137 3.6684 2.7011 3.6684 1.4998 0 2.7136-1.3059 2.7136-3.6684 0-2.3626-1.2138-3.6685-2.7136-3.6685-1.4874 0-2.7011 1.3059-2.7011 3.6685zm6.4597 0c0 2.8832-1.6878 4.6208-3.7586 4.6208-2.0652 0-3.7531-1.7376-3.7531-4.6208 0-2.8902 1.6879-4.6209 3.7531-4.6209 2.0708 0 3.7586 1.7307 3.7586 4.6209zm4.0377 4.5052h.9995v-9.1198l-3.6868 1.5567v1.0374l2.6873-1.1525zm8.3844-6.1978c0-1.1717-.9275-2.0076-2.1882-2.0076-1.2593 0-2.1883.8428-2.1883 2.0076 0 1.1717.929 2.0145 2.1883 2.0145 1.2607 0 2.1882-.8373 2.1882-2.0145zm-1.3436 2.7928c-.2931.0973-.611.1425-.9345.1425-1.7984 0-3.1296-1.2552-3.1296-2.9353 0-1.6732 1.363-2.9285 3.2195-2.9285 1.851 0 3.2264 1.2553 3.2264 2.9285 0 .7016-.2391 1.3197-.6746 1.9953l-2.7066 4.2029h-1.2207zm8.937 3.422h-6.1473v-.8757h6.1473zm8.7484-7.3218c-.732-.496-1.648-.8428-2.7397-.8428-1.3699 0-2.35.6112-2.35 1.6281 0 .8372.6829 1.2936 2.0971 1.4608l.8636.1027c1.5.1809 2.837.8113 2.837 2.368 0 1.7829-1.635 2.7106-3.597 2.7106-1.3174 0-2.7135-.4631-3.5706-1.1593l.5723-.8236c.629.5276 1.8109 1.0045 2.9928 1.0045 1.4085 0 2.5185-.566 2.5185-1.6417 0-.8743-.76-1.3128-2.2006-1.4732l-.9151-.1041c-1.5524-.1727-2.6817-.888-2.6817-2.3803 0-1.7116 1.5385-2.6709 3.4406-2.6709 1.3828 0 2.4278.4056 3.2648.9839zm3.15 7.3048h6.395v-.9716h-5.35v-3.0833h5.129v-.9648h-5.129v-3.0189h5.292v-.9716h-6.337zm9.839-8.0322v3.4369h2.357c1.402 0 2.162-.5728 2.162-1.7184s-.76-1.7185-2.162-1.7185zm0 4.4085v3.6233h-1.045v-9.0102h3.435c2.038 0 3.213 1.01 3.213 2.6969s-1.175 2.69-3.213 2.69zm7.775 3.6411c.435 0 .811-.3796.811-.8113 0-.4303-.376-.8044-.811-.8044-.436 0-.812.3741-.812.8044 0 .4317.376.8113.812.8113zm-55.6804-20.8499-.8695.5796c-.5972-.8948-1.6354-1.4484-2.838-1.4484-2.0376 0-3.5955 1.4676-3.5955 3.6369 0 2.168 1.5579 3.6356 3.5955 3.6356 1.2026 0 2.2283-.5399 2.838-1.4416l.8432.618c-.752 1.1265-2.115 1.8212-3.6812 1.8212-2.6997 0-4.6931-1.9308-4.6931-4.6332 0-2.7037 1.9934-4.6346 4.6931-4.6346 1.5842 0 2.9928.7085 3.7075 1.8665zm6.3763 6.4044c-2.039 0-3.5969-1.4677-3.5969-3.637s1.5579-3.6369 3.5969-3.6369c2.0445 0 3.6024 1.4676 3.6024 3.6369s-1.5579 3.637-3.6024 3.637zm0 .9963c2.7067 0 4.6945-1.9295 4.6945-4.6333 0-2.7023-1.9878-4.6332-4.6945-4.6332-2.7011 0-4.6944 1.9309-4.6944 4.6332 0 2.7038 1.9933 4.6333 4.6944 4.6333zm14.2637-.128h-.9414l-5.6289-7.2342v7.2342h-1.0451v-9.0102h.9414l5.629 7.2342v-7.2342h1.045zm3.6682-4.0482h4.9986v-.9785h-4.9986v-3.0052h5.2461v-.9785h-6.2911v9.0102h1.045zm14.0152 4.0482h-6.3951v-9.0102h6.3371v.9716h-5.292v3.0189h5.128v.9647h-5.128v3.0834h5.35zm3.461-4.8592v-3.1793h2.505c1.364 0 2.104.5276 2.104 1.5705 0 1.0483-.721 1.6088-2.104 1.6088zm5.694-1.6088c0-1.628-1.131-2.5421-3.175-2.5421h-3.564v9.0102h1.045v-3.9193h1.149l3.2 3.9193h1.299l-3.265-3.9193h.149c1.941 0 3.162-.9921 3.162-2.5488zm8.362 6.468h-6.394v-9.0102h6.336v.9716h-5.291v3.0189h5.128v.9647h-5.128v3.0834h5.349zm9.065 0h.941v-9.0102h-1.045v7.2342l-5.629-7.2342h-.941v9.0102h1.045v-7.2342zm11.347-7.2727-.869.5796c-.599-.8948-1.637-1.4484-2.838-1.4484-2.038 0-3.597 1.4676-3.597 3.6369 0 2.168 1.559 3.6356 3.597 3.6356 1.201 0 2.227-.5399 2.838-1.4416l.843.618c-.752 1.1265-2.116 1.8212-3.681 1.8212-2.7 0-4.693-1.9308-4.693-4.6332 0-2.7037 1.993-4.6346 4.693-4.6346 1.584 0 2.993.7085 3.707 1.8665zm1.859 7.2727h6.395v-.9716h-5.35v-3.0834h5.129v-.9647h-5.129v-3.0189h5.292v-.9716h-6.337z" fill="#221815"/></g></svg>