<svg height="264" viewBox="0 0 297 264" width="297" xmlns="http://www.w3.org/2000/svg"><g fill="none" fill-rule="evenodd"><path d="m31.2242647 28.9804667h-3.3352941v-25.25444448l-10.1117647 22.04585188h-3.5029412l-10.08970588-21.8783704v25.086963h-3.33529411v-28.97870374h5.05588235l10.13382354 21.90040744 10.1073529-21.90040744h5.0779412zm28.7819118 0h-20.4088236v-28.97870374h20.2235295v3.12485185h-16.8882353v9.70951849h16.367647v3.1028148h-16.367647v9.9166667h17.0735294zm11.147647-25.85252966v10.22518516h7.9941177c4.4161764 0 6.7147059-1.8026296 6.7147059-5.17429627 0-3.35403704-2.3602942-5.05088889-6.7147059-5.05088889zm8.0382353-3.12485185c6.525 0 10.1338236 2.93974074 10.1338236 8.17574074 0 5.00681477-3.8955883 8.19777777-10.0897059 8.19777777h-.4764706l10.4205882 12.6051852h-4.1470588l-10.2132353-12.6051852h-3.6661765v12.6051852h-3.3352941v-28.97870371zm19.7077941 3.14424444v11.05377777h7.5220591c4.473529 0 6.9-1.8422963 6.9-5.52688888 0-3.68459259-2.426471-5.52688889-6.9-5.52688889zm0 14.17862967v11.6531851h-3.3352941v-28.97870366h10.9632352c6.502941 0 10.252941 3.25266667 10.252941 8.67377778 0 5.42551848-3.75 8.65174078-10.252941 8.65174078zm27.3798531.4358926h11.810294l-5.907353-14.46951857zm19.932353 11.2168518h-3.564706l-3.295588-8.069963h-14.360294l-3.27353 8.069963h-3.458823l11.916176-28.9787037h4.120588zm11.96647-12.1476963v12.1512222h-3.313235v-12.1952963l-11.479412-16.78340737h3.975l9.180883 13.74229627 9.180882-13.74229627h3.873529zm-158.09735253 74.539837c1.36764706-2.0274074 3.91764706-4.804074 8.88970588-4.804074 5.88529415 0 9.26029415 3.852074 9.26029415 8.9646666 0 3.6008519-2.007353 6.188-3.8955883 8.197778l-8.66029408 9.149778h13.51323528v3.041111h-18.26029411v-2.503408l10.96323531-11.551815c1.7823529-1.864333 2.9867647-3.8476662 2.9867647-6.333444 0-3.332-2.1573529-5.9191481-6.00882354-5.9191481-3.29558823 0-5.1 1.7144815-6.46764705 3.6228889zm25.74882353 10.0594666c0 7.59837 3.8735294 11.79863 8.6205882 11.79863 4.7867647 0 8.6602942-4.20026 8.6602942-11.79863 0-7.5983703-3.8735295-11.7986295-8.6602942-11.7986295-4.7470588 0-8.6205882 4.2002592-8.6205882 11.7986295zm20.6161765 0c0 9.273185-5.3867647 14.861778-11.9955883 14.861778-6.5911764 0-11.9779411-5.588593-11.9779411-14.861778 0-9.2952221 5.3867647-14.8617777 11.9779411-14.8617777 6.6088236 0 11.9955883 5.5665556 11.9955883 14.8617777zm16.0760294 14.489793h-3.1897059v-24.694704l-8.5764706 3.7066296v-3.3364074l11.7661765-5.0068148zm23.5689706-19.9333818c0-3.7683333-2.9602941-6.4568518-6.9838236-6.4568518-4.0191176 0-6.9838235 2.7105555-6.9838235 6.4568518 0 3.7683334 2.9647059 6.4788888 6.9838235 6.4788888 4.0235295 0 6.9838236-2.6929258 6.9838236-6.4788888zm-4.2882353 8.9822968c-.9352941.312925-1.95.45837-2.982353.45837-5.7397058 0-9.9882353-4.037185-9.9882353-9.4406668 0-5.3814444 4.35-9.4186296 10.275-9.4186296 5.907353 0 10.2970589 4.0371852 10.2970589 9.4186296 0 2.2565926-.7632353 4.2443338-2.1529412 6.4171848l-8.6382353 13.517519h-3.8955882zm8.9033823 11.005737v-2.816334h19.6191175v2.816334zm47.5398525-23.5483375c-2.338235-1.5954815-5.258823-2.7105555-8.744117-2.7105555-4.372059 0-7.5 1.9657037-7.5 5.236 0 2.6929259 2.179412 4.1605926 6.692647 4.6982963l2.757353.3305555c4.786765.5817782 9.052941 2.6091852 9.052941 7.6160002 0 5.734037-5.219118 8.717852-11.479412 8.717852-4.204412 0-8.660294-1.489704-11.395588-3.728667l1.826471-2.648852c2.007353 1.696852 5.779411 3.23063 9.55147 3.23063 4.495588 0 8.038235-1.820259 8.038235-5.280074 0-2.811926-2.42647-4.222297-7.023529-4.737963l-2.920588-.334963c-4.954412-.555334-8.558824-2.8560002-8.558824-7.6556669 0-5.5048518 4.910294-8.590037 10.980883-8.590037 4.411764 0 7.747058 1.3045926 10.420588 3.1645185zm30.461912 23.4936855h-20.408823v-28.978704h20.223529v3.1248519h-16.888235v9.7095185h16.367647v3.1028146h-16.367647v9.916667h17.073529zm10.992794-25.8331373v11.0537773h7.522059c4.47353 0 6.9-1.8422959 6.9-5.5268884 0-3.6845926-2.42647-5.5268889-6.9-5.5268889zm0 14.1786293v11.653185h-3.335294v-28.9787032h10.963236c6.502941 0 10.252941 3.2482592 10.252941 8.6737778 0 5.4255184-3.75 8.6517404-10.252941 8.6517404zm27.401471 9.101297c0 1.388333-1.2 2.609185-2.589706 2.609185s-2.589706-1.220852-2.589706-2.609185c0-1.383926 1.2-2.587149 2.589706-2.587149s2.589706 1.203223 2.589706 2.587149zm-180.2920589-64.4486374-2.775 1.8643333c-1.9058823-2.878037-5.2191176-4.6586296-9.0573529-4.6586296-6.5029412 0-11.47500002 4.7203333-11.47500002 11.6972592 0 6.9725185 4.97205882 11.6928519 11.47500002 11.6928519 3.8382353 0 7.1117647-1.7365185 9.0573529-4.6365926l2.6911765 1.9877407c-2.4 3.6228889-6.75 5.8574445-11.7485294 5.8574445-8.61617649 0-14.9779412-6.2100371-14.9779412-14.9014445 0-8.6958148 6.36176471-14.9058518 14.9779412-14.9058518 5.0558823 0 9.5514706 2.2786296 11.8323529 6.0028889zm8.8707353 8.9007592c0 6.9769259 4.9720588 11.6972593 11.4794118 11.6972593 6.525 0 11.4970588-4.7203334 11.4970588-11.6972593s-4.9720588-11.6972592-11.4970588-11.6972592c-6.507353 0-11.4794118 4.7203333-11.4794118 11.6972592zm26.4617647 0c0 8.6958148-6.3441176 14.9014445-14.9823529 14.9014445-8.6205883 0-14.982353-6.2056297-14.982353-14.9014445 0-8.6914074 6.3617647-14.9014444 14.982353-14.9014444 8.6382353 0 14.9823529 6.210037 14.9823529 14.9014444zm30.54 14.4897926h-3.0044117l-17.9647059-23.2667037v23.2667037h-3.3352941v-28.9787037h3.0044117l17.9647059 23.2667037v-23.2667037h3.3352941zm27.6599999-13.0199222h-15.952941v13.0194815h-3.335294v-28.9787037h20.077941v3.1468889h-16.742647v9.6654444h15.952941zm28.775294 13.0199222h-20.408823v-28.9787037h20.223529v3.1248519h-16.888235v9.7095185h16.367647v3.1028148h-16.367647v9.9166667h17.073529zm11.046618-25.8534111v10.2251852h7.994118c4.416176 0 6.714705-1.8026296 6.714705-5.1742963 0-3.3540371-2.360294-5.0508889-6.714705-5.0508889zm8.038235-3.1248519c6.525 0 10.133824 2.9397408 10.133824 8.1757408 0 5.0068148-3.895589 8.1977778-10.089706 8.1977778h-.476471l10.420588 12.6051851h-4.147058l-10.213236-12.6051851h-3.666176v12.6051851h-3.335294v-28.9787037zm36.822794 28.978263h-20.408823v-28.9787037h20.223529v3.1248519h-16.888235v9.7095185h16.367647v3.1028148h-16.367647v9.9166667h17.073529zm31.933677 0h-3.004412l-17.964706-23.2667037v23.2667037h-3.335294v-28.9787037h3.004412l17.964706 23.2667037v-23.2667037h3.335294zm33.210882-23.3905518-2.775 1.8643333c-1.910294-2.878037-5.223529-4.6586296-9.057353-4.6586296-6.502941 0-11.479412 4.7203333-11.479412 11.6972592 0 6.9725185 4.976471 11.6928519 11.479412 11.6928519 3.833824 0 7.107353-1.7365185 9.057353-4.6365926l2.691177 1.9877407c-2.4 3.6228889-6.754412 5.8574445-11.74853 5.8574445-8.616176 0-14.977941-6.2100371-14.977941-14.9014445 0-8.6958148 6.361765-14.9058518 14.977941-14.9058518 5.055883 0 9.551471 2.2786296 11.832353 6.0028889zm26.341324 23.3905518h-20.408824v-28.9787037h20.22353v3.1248519h-16.888236v9.7095185h16.367647v3.1028148h-16.367647v9.9166667h17.07353z" fill="#221815"/><path d="m2.4 219 .378-3.136h-1.218v-1.078h1.344l.266-2.142h-1.302v-1.078h1.428l.364-2.8h.98l-.336 2.8h1.932l.364-2.8h.994l-.35 2.8h1.26v1.078h-1.386l-.266 2.142h1.33v1.078h-1.456l-.378 3.136h-1.008l.378-3.136h-1.932l-.392 3.136zm1.498-4.214h1.946l.266-2.142h-1.946zm6.44 4.214v-10.304h1.862l1.89 5.208c.238.686.448 1.386.686 2.086h.07c.238-.7.434-1.4.672-2.086l1.862-5.208h1.876v10.304h-1.512v-5.096c0-.924.126-2.254.21-3.192h-.056l-.826 2.38-1.792 4.914h-1.008l-1.806-4.914-.812-2.38h-.056c.07.938.196 2.268.196 3.192v5.096zm11.62 0v-10.304h3.122c2.296 0 3.934.784 3.934 3.108 0 2.254-1.638 3.29-3.878 3.29h-1.554v3.906zm1.624-5.208h1.4c1.652 0 2.436-.63 2.436-1.988s-.854-1.806-2.492-1.806h-1.344zm11.452 5.39c-2.59 0-4.578-1.932-4.578-5.306 0-3.36 2.044-5.376 4.648-5.376 1.288 0 2.296.616 2.926 1.302l-.882 1.036c-.532-.546-1.176-.924-2.016-.924-1.778 0-3.01 1.484-3.01 3.906 0 2.45 1.148 3.948 2.968 3.948.938 0 1.666-.42 2.282-1.092l.868 1.022c-.826.952-1.876 1.484-3.206 1.484zm4.284-.182v-.938c3.038-2.688 4.606-4.69 4.606-6.384 0-1.12-.602-1.89-1.75-1.89-.812 0-1.484.518-2.03 1.148l-.91-.896c.882-.952 1.792-1.54 3.136-1.54 1.89 0 3.108 1.232 3.108 3.094 0 1.988-1.582 4.046-3.766 6.132.532-.056 1.176-.098 1.68-.098h2.576v1.372zm11.354.182c-2.03 0-3.332-1.792-3.332-5.376 0-3.57 1.302-5.306 3.332-5.306 2.016 0 3.332 1.75 3.332 5.306 0 3.584-1.316 5.376-3.332 5.376zm0-1.274c1.05 0 1.792-1.12 1.792-4.102 0-2.954-.742-4.032-1.792-4.032s-1.792 1.078-1.792 4.032c0 2.982.742 4.102 1.792 4.102zm5.194 1.092v-1.33h2.254v-7.168h-1.848v-1.022c.966-.182 1.652-.42 2.24-.784h1.218v8.974h2.016v1.33zm10.542-5.04c.63 0 1.344-.364 1.96-1.26-.154-2.03-.924-2.954-2.044-2.954-.882 0-1.582.798-1.582 2.142 0 1.316.588 2.072 1.666 2.072zm-2.996 4.13.868-.994c.406.462 1.036.77 1.694.77 1.246 0 2.324-1.008 2.422-3.948-.602.742-1.484 1.204-2.268 1.204-1.722 0-2.884-1.078-2.884-3.234 0-2.044 1.4-3.388 3.066-3.388 1.974 0 3.57 1.596 3.57 4.998 0 4.06-1.848 5.684-3.836 5.684-1.19 0-2.03-.476-2.632-1.092zm11.508 1.092c-1.414 0-2.73-.56-3.668-1.512l.952-1.12c.742.742 1.75 1.218 2.744 1.218 1.246 0 1.946-.588 1.946-1.456 0-.938-.7-1.232-1.652-1.652l-1.428-.616c-.994-.42-2.1-1.204-2.1-2.702 0-1.624 1.428-2.842 3.388-2.842 1.204 0 2.338.504 3.122 1.302l-.854 1.036c-.644-.574-1.358-.924-2.268-.924-1.05 0-1.736.504-1.736 1.33 0 .882.826 1.218 1.666 1.554l1.414.602c1.218.518 2.1 1.274 2.1 2.786 0 1.652-1.372 2.996-3.626 2.996zm5.572-.182v-10.304h6.09v1.358h-4.466v2.87h3.78v1.372h-3.78v3.332h4.62v1.372zm8.4 0v-10.304h3.122c2.296 0 3.934.784 3.934 3.108 0 2.254-1.638 3.29-3.878 3.29h-1.554v3.906zm1.624-5.208h1.4c1.652 0 2.436-.63 2.436-1.988s-.854-1.806-2.492-1.806h-1.344zm-85.218 27.39c-1.414 0-2.73-.56-3.668-1.512l.952-1.12c.742.742 1.75 1.218 2.744 1.218 1.246 0 1.946-.588 1.946-1.456 0-.938-.7-1.232-1.652-1.652l-1.428-.616c-.994-.42-2.1-1.204-2.1-2.702 0-1.624 1.428-2.842 3.388-2.842 1.204 0 2.338.504 3.122 1.302l-.854 1.036c-.644-.574-1.358-.924-2.268-.924-1.05 0-1.736.504-1.736 1.33 0 .882.826 1.218 1.666 1.554l1.414.602c1.218.518 2.1 1.274 2.1 2.786 0 1.652-1.372 2.996-3.626 2.996zm5.572-.182v-10.304h6.09v1.358h-4.466v2.87h3.78v1.372h-3.78v3.332h4.62v1.372zm8.4 0v-10.304h3.122c2.296 0 3.934.784 3.934 3.108 0 2.254-1.638 3.29-3.878 3.29h-1.554v3.906zm1.624-5.208h1.4c1.652 0 2.436-.63 2.436-1.988s-.854-1.806-2.492-1.806h-1.344zm8.162 5.39c-.602 0-1.078-.462-1.078-1.12s.476-1.148 1.078-1.148 1.078.49 1.078 1.148-.476 1.12-1.078 1.12zm6.44-.182v-1.33h2.254v-7.168h-1.848v-1.022c.966-.182 1.652-.42 2.24-.784h1.218v8.974h2.016v1.33zm10.78.182c-1.932 0-3.36-1.148-3.36-2.744 0-1.358.896-2.268 1.848-2.772v-.07c-.77-.546-1.386-1.316-1.386-2.408 0-1.61 1.246-2.66 2.94-2.66 1.792 0 2.912 1.12 2.912 2.73 0 1.05-.714 1.946-1.358 2.422v.07c.924.532 1.736 1.33 1.736 2.73 0 1.526-1.344 2.702-3.332 2.702zm.672-5.908c.616-.574.924-1.232.924-1.918 0-.952-.574-1.666-1.582-1.666-.84 0-1.47.574-1.47 1.498 0 1.12.98 1.638 2.128 2.086zm-.644 4.746c1.05 0 1.778-.616 1.778-1.582 0-1.26-1.134-1.736-2.534-2.31-.714.49-1.204 1.26-1.204 2.156 0 1.022.854 1.736 1.96 1.736zm7.406.98v-8.946h-3.024v-1.358h7.686v1.358h-3.038v8.946zm6.44 0v-10.304h1.624v4.2h4.41v-4.2h1.624v10.304h-1.624v-4.69h-4.41v4.69zm12.768 0v-.938c3.038-2.688 4.606-4.69 4.606-6.384 0-1.12-.602-1.89-1.75-1.89-.812 0-1.484.518-2.03 1.148l-.91-.896c.882-.952 1.792-1.54 3.136-1.54 1.89 0 3.108 1.232 3.108 3.094 0 1.988-1.582 4.046-3.766 6.132.532-.056 1.176-.098 1.68-.098h2.576v1.372zm11.354.182c-2.03 0-3.332-1.792-3.332-5.376 0-3.57 1.302-5.306 3.332-5.306 2.016 0 3.332 1.75 3.332 5.306 0 3.584-1.316 5.376-3.332 5.376zm0-1.274c1.05 0 1.792-1.12 1.792-4.102 0-2.954-.742-4.032-1.792-4.032s-1.792 1.078-1.792 4.032c0 2.982.742 4.102 1.792 4.102zm5.194 1.092v-1.33h2.254v-7.168h-1.848v-1.022c.966-.182 1.652-.42 2.24-.784h1.218v8.974h2.016v1.33zm10.542-5.04c.63 0 1.344-.364 1.96-1.26-.154-2.03-.924-2.954-2.044-2.954-.882 0-1.582.798-1.582 2.142 0 1.316.588 2.072 1.666 2.072zm-2.996 4.13.868-.994c.406.462 1.036.77 1.694.77 1.246 0 2.324-1.008 2.422-3.948-.602.742-1.484 1.204-2.268 1.204-1.722 0-2.884-1.078-2.884-3.234 0-2.044 1.4-3.388 3.066-3.388 1.974 0 3.57 1.596 3.57 4.998 0 4.06-1.848 5.684-3.836 5.684-1.19 0-2.03-.476-2.632-1.092zm-91.714 23.092c-1.414 0-2.73-.56-3.668-1.512l.952-1.12c.742.742 1.75 1.218 2.744 1.218 1.246 0 1.946-.588 1.946-1.456 0-.938-.7-1.232-1.652-1.652l-1.428-.616c-.994-.42-2.1-1.204-2.1-2.702 0-1.624 1.428-2.842 3.388-2.842 1.204 0 2.338.504 3.122 1.302l-.854 1.036c-.644-.574-1.358-.924-2.268-.924-1.05 0-1.736.504-1.736 1.33 0 .882.826 1.218 1.666 1.554l1.414.602c1.218.518 2.1 1.274 2.1 2.786 0 1.652-1.372 2.996-3.626 2.996zm5.572-.182v-10.304h1.624v4.2h4.41v-4.2h1.624v10.304h-1.624v-4.69h-4.41v4.69zm10.36 0v-10.304h1.624v10.304zm4.326 0v-10.304h3.192c2.114 0 3.64.672 3.64 2.534 0 .98-.546 1.918-1.47 2.226v.07c1.176.252 2.03 1.05 2.03 2.45 0 2.044-1.666 3.024-3.948 3.024zm1.624-6.006h1.386c1.568 0 2.226-.588 2.226-1.554 0-1.078-.728-1.484-2.184-1.484h-1.428zm0 4.732h1.638c1.61 0 2.534-.574 2.534-1.834 0-1.162-.896-1.666-2.534-1.666h-1.638zm11.494 1.456c-2.282 0-3.836-1.246-3.836-4.606v-5.88h1.624v5.992c0 2.324.924 3.08 2.212 3.08 1.302 0 2.254-.756 2.254-3.08v-5.992h1.568v5.88c0 3.36-1.54 4.606-3.822 4.606zm8.176-.182v-3.906l-3.094-6.398h1.736l1.19 2.73c.322.77.616 1.484.966 2.268h.056c.336-.784.672-1.498.98-2.268l1.204-2.73h1.694l-3.108 6.398v3.906zm7.602-4.214h2.814l-.406-1.386c-.35-1.12-.658-2.268-.98-3.43h-.056c-.294 1.176-.616 2.31-.952 3.43zm4.074 4.214-.868-2.94h-3.584l-.882 2.94h-1.652l3.416-10.304h1.876l3.416 10.304zm6.23 0v-10.304h1.624v4.2h4.41v-4.2h1.624v10.304h-1.624v-4.69h-4.41v4.69zm10.36 0v-10.304h1.624v10.304zm4.326 0v-10.304h1.624v4.872h.042l3.92-4.872h1.806l-3.192 3.976 3.724 6.328h-1.806l-2.912-5.04-1.582 1.932v3.108zm10.836-4.214h2.814l-.406-1.386c-.35-1.12-.658-2.268-.98-3.43h-.056c-.294 1.176-.616 2.31-.952 3.43zm4.074 4.214-.868-2.94h-3.584l-.882 2.94h-1.652l3.416-10.304h1.876l3.416 10.304zm4.704-9.002v3.542h1.554c1.498 0 2.31-.616 2.31-1.862s-.812-1.68-2.31-1.68zm5.838 9.002h-1.834l-2.338-4.158h-1.666v4.158h-1.624v-10.304h3.374c2.128 0 3.724.756 3.724 2.982 0 1.596-.854 2.548-2.156 2.954zm1.708 0v-10.304h1.624v10.304zm4.326 0v-10.304h6.09v1.358h-4.466v2.87h3.78v1.372h-3.78v3.332h4.62v1.372zm11.55 0v-10.304h1.624v4.2h4.41v-4.2h1.624v10.304h-1.624v-4.69h-4.41v4.69zm11.914-4.214h2.814l-.406-1.386c-.35-1.12-.658-2.268-.98-3.43h-.056c-.294 1.176-.616 2.31-.952 3.43zm4.074 4.214-.868-2.94h-3.584l-.882 2.94h-1.652l3.416-10.304h1.876l3.416 10.304zm3.08 0v-10.304h1.624v8.932h4.354v1.372zm7.798 0v-10.304h1.624v8.932h4.354v1.372z" fill="#222" fill-rule="nonzero"/></g></svg>