<svg height="557" viewBox="0 0 702 557" width="702" xmlns="http://www.w3.org/2000/svg"><g fill="none" fill-rule="evenodd" transform="translate(0 -4)"><path d="m2.07200034 7.64799863h1.78400029l.6080001-2.84800047h1.56800026l-.6080001 2.84800047h2.15200035l.6080001-2.84800047h1.56800026l-.6080001 2.84800047h1.7840003l-.3200001 1.48800024h-1.78400025l-.52000009 2.47200043h1.76800034l-.3120001 1.4880002h-1.77600029l-.6160001 2.9040005h-1.56800026l.6160001-2.9040005h-2.15200035l-.6160001 2.9040005h-1.56800026l.6160001-2.9040005h-1.78400029l.32000005-1.4880002h1.78400029l.52000009-2.47200043h-1.78400029zm3.0320005 1.48800024-.52000009 2.47200043h2.15200035l.52000009-2.47200043zm20.32000136-4.33600071v11.20000184h-1.8080003v-9.21600151l-3.2720005 8.12000131h-1.9040003l-3.2720006-8.0320013v9.1280015h-1.8080003v-11.20000184h2.7760005l3.2560005 8.00000004 3.2560006-8.00000004zm7.3839988 6.80000114h-2.5360005v4.4000007h-1.8080003v-11.20000184h4.3440008c2.5840004 0 3.9680006 1.30400022 3.9680006 3.40000056 0 2.09600038-1.3840002 3.40000058-3.9680006 3.40000058zm-.048-5.09600086h-2.4880005v3.39200056h2.4880005c1.4640002 0 2.1360003-.54400009 2.1360003-1.69600028s-.6720001-1.69600028-2.1360003-1.69600028zm11.5520001-1.91200031c1.9920003 0 3.7600006.88800015 4.6400008 2.34400038l-1.5120003 1.00800017c-.6800001-.99200016-1.7920003-1.61600027-3.1280005-1.61600027-2.2880004 0-3.9680006 1.65600028-3.9680006 4.07200069 0 2.4160004 1.6800002 4.0720006 3.9680006 4.0720006 1.3280002 0 2.4240004-.6 3.1200005-1.6080002l1.4720003 1.0800002c-.9520002 1.4000002-2.6320005 2.2640003-4.5920008 2.2640003-3.4400006 0-5.864001-2.4640004-5.864001-5.8080009 0-3.34400057 2.4240004-5.80800097 5.864001-5.80800097zm7.3519992 2.91200048-1.2400002-1.02400017c.5360001-.72800012 1.5520003-1.87200031 3.5760006-1.87200031 2.3200004 0 3.7120006 1.49600025 3.7120006 3.60000059 0 1.40800023-.8000001 2.39200038-1.4880002 3.13600048l-2.8080005 3.0080005h4.6000007v1.6480003h-7.1680011v-1.3600002l4.0480006-4.3040007c.6240001-.67200014 1.0000002-1.33600025 1.0000002-2.13600038 0-1.12000018-.7360001-1.93600032-1.9440003-1.93600032-1.1360002 0-1.7360003.5680001-2.2880004 1.24000021zm12.7200006-2.89600048c2.6000005 0 4.7280008 2.16800036 4.7280008 5.79200097 0 3.6160006-2.1280003 5.7920009-4.7280008 5.7920009-2.6080004 0-4.7200007-2.1760003-4.7200007-5.7920009 0-3.62400061 2.1120003-5.79200097 4.7200007-5.79200097zm0 1.66400028c-1.6000002 0-2.9040004 1.42400023-2.9040004 4.12800069 0 2.7040004 1.3040002 4.1280007 2.9040004 4.1280007 1.6160003 0 2.9120005-1.4240003 2.9120005-4.1280007 0-2.70400046-1.2960002-4.12800069-2.9120005-4.12800069zm10.7679999-1.64800027v11.37600186h-1.7360003v-8.85600145l-2.8480004 1.2240002v-1.8080003zm3.9599996 11.37600186 2.8480005-4.0640007c-.2160001.064-.4880001.1120001-.8640002.1120001-2.0480003 0-3.7600006-1.5920003-3.7600006-3.72000066 0-2.12800035 1.7360003-3.72000061 4.0640007-3.72000061 2.3200004 0 4.0640006 1.59200026 4.0640006 3.72000061 0 .98400016-.352 1.84800026-1.0080001 2.82400046l-3.2240006 4.8480008zm2.2880004-5.5600009c1.2880002 0 2.2720003-.86400015 2.2720003-2.11200036 0-1.2560002-.9840001-2.11200034-2.2720003-2.11200034-1.2960002 0-2.2720004.86400014-2.2720004 2.11200034 0 1.24800021.9760002 2.11200036 2.2720004 2.11200036zm14.4240008-4.62400077-.9200001 1.46400024c-.9520002-.6080001-2.0080004-.96000016-3.1440006-.96000016-1.4960002 0-2.5200004.64800011-2.5200004 1.67200028 0 .92800015.8720002 1.28800021 2.3280004 1.49600024l.7760001.10400002c1.8160003.24800004 3.6080006 1.00000015 3.6080006 3.08000055 0 2.2800003-2.0640003 3.5280005-4.4880007 3.5280005-1.5200003 0-3.3440006-.504-4.5040008-1.5040002l.9840002-1.4400002c.7680001.7040001 2.2160004 1.2320002 3.5120006 1.2320002 1.4640002 0 2.6160004-.6240002 2.6160004-1.6560003 0-.8800002-.8800001-1.2880002-2.5200004-1.5120003l-.8720001-.12c-1.6640003-.232-3.3200006-1.0160002-3.3200006-3.09600049 0-2.24800037 1.9920003-3.49600058 4.4160007-3.49600058 1.6320003 0 2.9200005.45600008 4.0480007 1.2080002zm10.7280004 8.48800137v1.6960003h-8.1680018v-11.20000184h8.0640018v1.69600028h-6.256001v3.0160005h6.040001v1.69600026h-6.040001v3.0960005zm7.079999-2.7040004h-2.536v4.4000007h-1.808001v-11.20000184h4.344001c2.584 0 3.968001 1.30400022 3.968001 3.40000056 0 2.09600038-1.384001 3.40000058-3.968001 3.40000058zm-.048-5.09600086h-2.488v3.39200056h2.488c1.464 0 2.136-.54400009 2.136-1.69600028s-.672-1.69600028-2.136-1.69600028zm-97.6979984 24.94699886-1.4950002 2.3790004c-1.5470003-.9880002-3.2630006-1.5600003-5.10900088-1.5600003-2.4310004 0-4.09500067 1.0530002-4.09500067 2.7170005 0 1.5080002 1.41700023 2.0930003 3.78300062 2.4310004l1.26100023.169c2.9510005.4030001 5.8630009 1.6250003 5.8630009 5.0050008 0 3.7050006-3.3540005 5.733001-7.29300116 5.733001-2.4700004 0-5.43400089-.8190002-7.3190012-2.4440004l1.59900027-2.3400004c1.2480002 1.1440002 3.60100059 2.0020003 5.70700093 2.0020003 2.37900036 0 4.25100066-1.0140002 4.25100066-2.6910004 0-1.4300003-1.4300002-2.0930004-4.09500063-2.4570004l-1.41700024-.1950001c-2.70400044-.377-5.39500088-1.6510002-5.39500088-5.0310008 0-3.6530006 3.23700053-5.6810009 7.17600118-5.6810009 2.65200047 0 4.74500077.7410001 6.57800107 1.9630003zm17.433 13.7930022v2.7560005h-13.2730022v-18.200003h13.1040022v2.7560005h-10.1660017v4.9010008h9.8150016v2.7560004h-9.8150016v5.0310008zm11.504999-4.3940007h-4.1210007v7.1500012h-2.9380005v-18.200003h7.0590012c4.1990007 0 6.448001 2.1190004 6.448001 5.5250009 0 3.4060006-2.2490003 5.5250009-6.448001 5.5250009zm-.0780001-8.2810013h-4.0430006v5.5120009h4.0430006c2.3790004 0 3.4710006-.8840002 3.4710006-2.7560005s-1.0920002-2.7560004-3.4710006-2.7560004zm11.2059991 11.2060018c1.2090002 0 2.2620003 1.0400002 2.2620003 2.2620004s-1.0530001 2.2880004-2.2620003 2.2880004-2.2750004-1.0660002-2.2750004-2.2880004 1.0660002-2.2620004 2.2750004-2.2620004zm18.6940008-14.2610023v18.486003h-2.8210005v-14.3910024l-4.6280008 1.9890004v-2.9380005zm10.79-.026c3.5880005 0 6.500001 1.9370003 6.500001 5.2000008 0 2.1060004-1.2220002 3.4060006-2.7950004 4.1340007 1.7810003.7020001 3.2240005 2.0150003 3.2240005 4.2380007 0 3.3020005-3.1070005 5.2520009-6.9290011 5.2520009-3.8220007 0-6.9290012-1.9500004-6.9290012-5.2520009 0-2.2230004 1.4300003-3.5360006 3.2240005-4.2380007-1.5730002-.7280001-2.7950004-2.0280003-2.7950004-4.1340007 0-3.2630005 2.9120005-5.2000008 6.5000011-5.2000008zm0 10.5950017c-2.1580004 0-3.9390007.9750002-3.9390007 2.8210005 0 1.8330003 1.7810003 2.7950004 3.9390007 2.7950004 2.1450003 0 3.9260006-.9620001 3.9260006-2.7950004 0-1.8460003-1.7810003-2.8210005-3.9260006-2.8210005zm0-7.9690013c-1.9370004 0-3.5100006.9490002-3.5100006 2.7170004 0 1.8330003 1.5730002 2.7820005 3.5100006 2.7820005 1.9370003 0 3.5230005-.9490002 3.5230005-2.7820005 0-1.7680002-1.5860002-2.7170004-3.5230005-2.7170004zm23.4780006-2.3140004v2.7820005h-5.889v15.4180025h-2.938001v-15.4180025h-5.8890009v-2.7820005zm5.901999 0v7.6440013h9.828001v-7.6440013h2.938001v18.200003h-2.938001v-7.7740013h-9.828001v7.7740013h-2.938001v-18.200003zm25.297999 4.3940007-2.015-1.6640002c.871-1.1830002 2.522001-3.0420005 5.811001-3.0420005 3.770001 0 6.032001 2.4310004 6.032001 5.8500009 0 2.2880004-1.3 3.8870007-2.418 5.0960009l-4.563001 4.8880008h7.475001v2.6780004h-11.648002v-2.2100004l6.578001-6.9940011c1.014001-1.0920002 1.625001-2.1710004 1.625001-3.4710006 0-1.8200003-1.196001-3.1460005-3.159001-3.1460005-1.846 0-2.821.9230002-3.718001 2.0150003zm20.670002-4.7060007c4.225 0 7.683001 3.5230005 7.683001 9.4120015 0 5.876001-3.458001 9.4120016-7.683001 9.4120016-4.238001 0-7.670002-3.5360006-7.670002-9.4120016 0-5.889001 3.432001-9.4120015 7.670002-9.4120015zm0 2.7040004c-2.600001 0-4.719001 2.3140004-4.719001 6.7080011s2.119 6.7080011 4.719001 6.7080011c2.626 0 4.732-2.3140004 4.732-6.7080011s-2.106-6.7080011-4.732-6.7080011zm17.497999-2.6780004v18.486003h-2.821v-14.3910024l-4.628001 1.9890004v-2.9380005zm6.435 18.486003 4.628-6.6040011c-.351.104-.793.182-1.404.182-3.328 0-6.110001-2.5870004-6.110001-6.0450009 0-3.4580006 2.821001-6.045001 6.604001-6.045001 3.770001 0 6.604001 2.5870004 6.604001 6.045001 0 1.5990002-.572 3.0030004-1.638 4.5890007l-5.239001 7.8780013zm3.718-9.0350015c2.093001 0 3.692001-1.4040002 3.692001-3.4320005 0-2.0410004-1.599-3.4320006-3.692001-3.4320006-2.106 0-3.692 1.4040002-3.692 3.4320006 0 2.0280003 1.586 3.4320005 3.692 3.4320005zm-178.6589994 23.8509998-.92000015 1.4640003c-.95200015-.6080001-2.00800033-.9600002-3.14400051-.9600002-1.49600025 0-2.52000042.6480001-2.52000042 1.6720003 0 .9280001.87200015 1.2880002 2.32800038 1.4960002l.77600013.104c1.8160003.2480001 3.60800059 1.0000002 3.60800059 3.0800006 0 2.2800003-2.06400033 3.5280005-4.48800073 3.5280005-1.52000025 0-3.34400055-.504-4.50400074-1.5040002l.98400016-1.4400002c.76800013.7040001 2.21600036 1.2320002 3.51200058 1.2320002 1.46400024 0 2.61600043-.6240002 2.61600043-1.6560003 0-.8800002-.88000015-1.2880002-2.52000042-1.5120003l-.87200014-.12c-1.66400027-.232-3.32000054-1.0160002-3.32000054-3.0960005 0-2.2480004 1.99200032-3.4960006 4.41600072-3.4960006 1.63200027 0 2.92000048.4560001 4.04800066 1.2080002zm4.3679989-1.0160001v4.7040007h6.048001v-4.7040007h1.8080003v11.2000018h-1.8080003v-4.7840008h-6.048001v4.7840008h-1.8080003v-11.2000018zm12.704 0v11.2000018h-1.8080003v-11.2000018zm3.0399997 0h4.3440008c2.3920004 0 4.1920006.8240001 4.1920006 3.0480005 0 1.1520002-.7440001 2.1120003-1.7280002 2.3840004 1.0640001.312 1.9840003 1.2800002 1.9840003 2.5679991 0 2.2320016-1.6400003 3.2000018-4.1920007 3.2000018h-4.6000008zm4.5200008 6.400001h-2.7120005v3.1040005h2.7120005c1.4240002 0 2.3760004-.272 2.3760004-1.5680002 0-1.2640002-.9520002-1.5360003-2.3760004-1.5360003zm-.2480001-4.7040008h-2.4640004v3.0160005h2.4800005c1.2560002 0 2.3520003-.192 2.3520003-1.5280002 0-1.2880002-1.1120001-1.4880003-2.3680004-1.4880003zm16.3040009-1.6960002v6.7840011c0 3.1120005-2.1040004 4.6160007-4.7520008 4.6160007s-4.7520008-1.5040002-4.7520008-4.6160007v-6.7840011h1.8080003v6.6480011c0 2.1360003 1.2080002 3.0160004 2.9440005 3.0160004s2.9440005-.8800001 2.9440005-3.0160004v-6.6480011zm11.9199999 0-4.3200007 6.6560011v4.5440007h-1.8080003v-4.5760008l-4.3520007-6.624001h2.1600004l3.1040005 5.0160008 3.1120005-5.0160008zm6.9919994 0 4.4240008 11.2000018h-1.9440004l-1.1040001-2.8560005h-5.0720009l-1.1040002 2.8560005h-1.8800003l4.4240008-11.2000018zm-1.1600002 1.8000003-1.8720003 4.8320008h3.7440007zm13.4719996-1.8000003v4.7040007h6.048001v-4.7040007h1.8080003v11.2000018h-1.8080003v-4.7840008h-6.048001v4.7840008h-1.8080003v-11.2000018zm12.704 0v11.2000018h-1.8080003v-11.2000018zm10.3840005 11.2000018-4.456-4.7760008h-1.0800005v4.7760008h-1.8080003v-11.2000018h1.8080003v4.7120007h1.1040005l4.208-4.7120007h2.336001l-5.040001 5.4640009 5.384001 5.7360009zm9.448-11.2000018 4.424001 11.2000018h-1.944l-1.104001-2.8560005h-5.072l-1.104001 2.8560005h-1.88l4.424001-11.2000018zm-1.16 1.8000003-1.872 4.8320008h3.744zm7.343999-1.8000003h4.608001c2.576 0 3.968001 1.1520002 3.968001 3.2400005 0 1.9040003-1.456001 3.1680005-3.736001 3.2480005l3.688001 4.7120008h-2.240001l-3.568-4.7120008h-.912v4.7120008h-1.808001zm4.560001 1.6960002h-2.752v3.1520006h2.752c1.456 0 2.136-.5280001 2.136-1.6080003 0-1.0640002-.72-1.5440003-2.136-1.5440003zm8.224-1.6960002v11.2000018h-1.808001v-11.2000018zm11.208001 9.5040015v1.6960003h-8.168002v-11.2000018h8.064002v1.6960002h-6.256001v3.0160005h6.040001v1.6960003h-6.040001v3.0960005zm8.863999-9.5040015v4.7040007h6.048001v-4.7040007h1.808v11.2000018h-1.808v-4.7840008h-6.048001v4.7840008h-1.808001v-11.2000018zm16.296 0 4.424001 11.2000018h-1.944l-1.104001-2.8560005h-5.072l-1.104001 2.8560005h-1.88l4.424001-11.2000018zm-1.16 1.8000003-1.872 4.8320008h3.744zm15.352001 7.6880012v1.7120003h-8.008002v-11.2000018h1.808001v9.4880015zm9.832 0v1.7120003h-8.008002v-11.2000018h1.808001v9.4880015z" fill="#000" fill-rule="nonzero"/><path d="m73.8974265 68.6764h-7.8935294v-59.84666667l-23.9311765 52.24311107h-8.2902941l-23.87897062-51.84622218v59.44977778h-7.89352941v-68.67222222h11.96558823l23.9833824 51.89844442 23.9207353-51.89844442h12.0177941zm68.1171915 0h-48.3008827v-68.67222222h47.8623527v7.40511111h-39.968823v23.00911111h38.736764v7.3528889h-38.736764v23.5h40.407353zm26.382764-61.26397778v24.23111108h18.919412c10.451618 0 15.891471-4.2717777 15.891471-12.2617777 0-7.9482223-5.58603-11.96933338-15.891471-11.96933338zm19.023824-7.40511111c15.4425 0 23.983382 6.96644445 23.983382 19.37444449 0 11.8648888-9.219559 19.4266666-23.87897 19.4266666h-1.127647l24.662058 29.8711111h-9.814705l-24.171324-29.8711111h-8.676618v29.8711111h-7.893529v-68.67222219zm46.641779 7.45106667v26.19466662h17.802206c10.587353 0 16.33-4.3657777 16.33-13.0973333 0-8.7315555-5.742647-13.09733332-16.33-13.09733332zm0 33.59977782v27.6151111h-7.893529v-68.67222226h25.946323c15.390295 0 24.265295 7.708 24.265295 20.55466666 0 12.8571111-8.875 20.5024445-24.265295 20.5024445zm64.798986 1.0329555h27.951029l-13.980735-34.2891111zm47.173235 26.5811111h-8.436471l-7.799559-19.1237778h-33.986029l-7.747353 19.1237778h-8.185882l28.201617-68.6722222h9.752059zm28.320647-28.7869778v28.7953334h-7.841324v-28.8997778l-27.167941-39.77244444h9.4075l21.728088 32.56577774 21.728089-32.56577774h9.167353zm-374.16373535 176.6406226c3.2367647-4.804445 9.2717647-11.384445 21.03897055-11.384445 13.9285294 0 21.9160294 9.128445 21.9160294 21.244 0 8.533111-4.7507352 14.664-9.2195588 19.426667l-20.4960294 21.682667h31.9813235v7.206666h-43.21602937v-5.932444l25.94632357-27.374889c4.2182353-4.418 7.0686764-9.118 7.0686764-15.008667 0-7.896-5.1057353-14.026889-14.2208823-14.026889-7.7995588 0-12.07000002 4.062889-15.30676473 8.585334zm60.93888235 23.8384c0 18.006222 9.1673529 27.959777 20.4020588 27.959777 11.3286765 0 20.4960292-9.953555 20.4960292-27.959777 0-18.006223-9.1673527-27.959778-20.4960292-27.959778-11.2347059 0-20.4020588 9.953555-20.4020588 27.959778zm48.791618 0c0 21.975111-12.7486768 35.218666-28.3895592 35.218666-15.5991176 0-28.3477941-13.243555-28.3477941-35.218666 0-22.027334 12.7486765-35.218667 28.3477941-35.218667 15.6408824 0 28.3895592 13.191333 28.3895592 35.218667zm38.046603 34.337155h-7.548971v-58.520222l-20.297647 8.783778v-7.906445l27.846618-11.864889zm55.779897-47.237089c0-8.93-7.00603-15.301111-16.528383-15.301111-9.511911 0-16.528382 6.423334-16.528382 15.301111 0 8.93 7.016471 15.353334 16.528382 15.353334 9.522353 0 16.528383-6.381556 16.528383-15.353334zm-10.148824 21.285778c-2.213529.741556-4.615 1.086222-7.058235 1.086222-13.583971 0-23.638824-9.567111-23.638824-22.372 0-12.752666 10.295-22.319777 24.3175-22.319777 13.980736 0 24.369706 9.567111 24.369706 22.319777 0 5.347556-1.806323 10.058-5.095294 15.207111l-20.443823 32.033112h-9.219559zm21.071338 26.080822v-6.674h46.431912v6.674zm112.510986-55.803622c-5.533824-3.780889-12.445883-6.423333-20.694412-6.423333-10.347206 0-17.75 4.658222-17.75 12.408 0 6.381555 5.157941 9.859555 15.839265 11.133778l6.525735.783333c11.328676 1.378667 21.425294 6.183111 21.425294 18.048 0 13.588222-12.351912 20.659111-27.167941 20.659111-9.950441 0-20.49603-3.530222-26.969559-8.836l4.322647-6.277111c4.750735 4.021111 13.677941 7.655778 22.605147 7.655778 10.639559 0 19.023824-4.313556 19.023824-12.512445 0-6.663555-5.742647-10.005778-16.622353-11.227778l-6.912059-.793777c-11.725441-1.316-20.255882-6.768-20.255882-18.142 0-13.045111 11.621029-20.356223 25.988088-20.356223 10.441176 0 18.334706 3.091556 24.662059 7.499112zm72.093191 55.674111h-48.300883v-68.672222h47.862353v7.405111h-39.968823v23.009111h38.736765v7.352889h-38.736765v23.5h40.407353zm26.016279-61.218022v26.194667h17.802206c10.587353 0 16.33-4.365778 16.33-13.097334 0-8.731555-5.742647-13.097333-16.33-13.097333zm0 33.599778v27.615111h-7.893529v-68.672222h25.946323c15.390294 0 24.265294 7.697555 24.265294 20.554666s-8.875 20.502445-24.265294 20.502445zm64.850147 21.567778c0 3.29-2.84 6.183111-6.12897 6.183111-3.288971 0-6.128971-2.893111-6.128971-6.183111 0-3.279556 2.84-6.130889 6.128971-6.130889 3.28897 0 6.12897 2.851333 6.12897 6.130889zm-426.6912056-152.727023-6.5675 4.418c-4.5105882-6.820222-12.3519118-11.039777-21.4357353-11.039777-15.3902941 0-27.15749998 11.186-27.15749998 27.719555 0 16.523111 11.76720588 27.709111 27.15749998 27.709111 9.0838235 0 16.8311765-4.115111 21.4357353-10.987555l6.3691177 4.710444c-5.68 8.585333-15.975 13.880667-27.804853 13.880667-20.3916176 0-35.4477941-14.716222-35.4477941-35.312667 0-20.606889 15.0561765-35.323111 35.4477941-35.323111 11.9655883 0 22.6051471 5.399778 28.0032353 14.225333zm20.9940735 21.092556c0 16.533555 11.7672059 27.719555 27.1679411 27.719555 15.4425 0 27.209706-11.186 27.209706-27.719555 0-16.533556-11.767206-27.719556-27.209706-27.719556-15.4007352 0-27.1679411 11.186-27.1679411 27.719556zm62.6261761 0c0 20.606889-15.014411 35.312667-35.458235 35.312667-20.4020587 0-35.4582352-14.705778-35.4582352-35.312667 0-20.596445 15.0561765-35.312667 35.4582352-35.312667 20.443824 0 35.458235 14.716222 35.458235 35.312667zm72.278 34.337155h-7.110441l-42.51647-55.136222v55.136222h-7.89353v-68.672222h7.110441l42.516471 55.136222v-55.136222h7.893529zm65.462-30.853933h-37.755294v30.852889h-7.893529v-68.672222h47.517794v7.457333h-39.624265v22.904667h37.755294zm68.10153 30.853933h-48.300883v-68.672222h47.862353v7.405111h-39.968823v23.009111h38.736765v7.352889h-38.736765v23.5h40.407353zm26.143662-61.266066v24.231111h18.919411c10.451618 0 15.891471-4.271778 15.891471-12.261778 0-7.948222-5.586029-11.969333-15.891471-11.969333zm19.023823-7.405111c15.4425 0 23.983382 6.966444 23.983382 19.374444 0 11.864889-9.219558 19.426667-23.87897 19.426667h-1.127647l24.662059 29.871111h-9.814706l-24.171324-29.871111h-8.676617v29.871111h-7.89353v-68.672222zm87.14728 68.671177h-48.300883v-68.672222h47.862353v7.405111h-39.968823v23.009111h38.736764v7.352889h-38.736764v23.5h40.407353zm75.576367 0h-7.110441l-42.516471-55.136222v55.136222h-7.893529v-68.672222h7.110441l42.516471 55.136222v-55.136222h7.893529zm78.599088-55.429711-6.5675 4.418c-4.521029-6.820222-12.362353-11.039777-21.435735-11.039777-15.390294 0-27.167941 11.186-27.167941 27.719555 0 16.523111 11.777647 27.709111 27.167941 27.709111 9.073382 0 16.820735-4.115111 21.435735-10.987555l6.369118 4.710444c-5.68 8.585333-15.985441 13.880667-27.804853 13.880667-20.391618 0-35.447794-14.716222-35.447794-35.312667 0-20.606889 15.056176-35.323111 35.447794-35.323111 11.965588 0 22.605147 5.399778 28.003235 14.225333zm62.341133 55.429711h-48.300883v-68.672222h47.862353v7.405111h-39.968823v23.009111h38.736765v7.352889h-38.736765v23.5h40.407353z" fill="#221815" transform="translate(0 285)"/></g></svg>