<svg enable-background="new 0 0 82 17" viewBox="0 0 82 17" xmlns="http://www.w3.org/2000/svg"><g fill="#222"><path d="m79.2.5-3.1 7.5-3-7.5h-3.1l4.8 10.6-2.5 5.9h2.6l7.1-16.5z"/><path d="m12.7.4c-1.6 0-2.7.6-3.7 1.8-1.1-1.2-2.3-1.8-3.9-1.8-3 0-5.1 2.3-5.1 5.3v6.6h2.7v-6.9c0-1.5.9-2.6 2.4-2.6s2.5 1.1 2.5 2.6v6.9h2.7v-6.9c0-1.5.9-2.6 2.4-2.6s2.5 1.1 2.5 2.6v6.9h2.8v-6.6c0-3-2.2-5.3-5.3-5.3z"/><path d="m39.8 2.9c-1.5 0-2.4 1.2-2.4 2.9v6.5h-2.7v-6.6c0-3 2.1-5.3 5.1-5.3h1v2.5z"/><path d="m26.4.4c-3.7 0-5.9 3-5.9 6 0 3.7 2.7 6 6.4 6 2.4 0 4.3-.8 4.3-.8v-2.4s-2.2.9-4.2.9c-2.1 0-3.5-.9-3.8-2.7h8.3s.1-.5.1-1.3c.1-3.4-2.4-5.7-5.2-5.7zm-3.1 4.8c.4-2 1.9-2.5 3-2.5 1.2 0 2.7.8 3 2.5z"/><path d="m62.6.4c-3.5 0-6.1 2.5-6.1 6s2.4 6 5.8 6c1.6 0 3-.9 3.5-2v1.9h2.7v-5.9c0-3.7-2.3-6-5.9-6zm0 9.6c-2 0-3.3-1.4-3.3-3.6 0-2 1.4-3.6 3.3-3.6 2 0 3.2 1.4 3.2 3.6 0 1.7-1.1 3.6-3.2 3.6z"/><path d="m42.5 6.4v10.6h2.7v-6.7c.4 1.1 1.8 2 3.5 2 3.4 0 5.8-2.5 5.8-6s-2.5-6-6.1-6c-3.6.1-5.9 2.4-5.9 6.1zm2.8 0c0-2.2 1.2-3.6 3.2-3.6 1.9 0 3.3 1.5 3.3 3.6 0 2.2-1.3 3.6-3.3 3.6-2.2 0-3.2-1.9-3.2-3.6z"/></g></svg>