<svg fill="none" height="131" viewBox="0 0 13 131" width="13" xmlns="http://www.w3.org/2000/svg"><g fill="#000"><path d="m9.15 7.946c.63-1.056.894-2.034.894-3.21 0-1.788-.912-3.348-2.664-3.348-1.518 0-2.172 1.08-2.406 2.562l-.084.534c-.186 1.17-.402 1.782-.984 1.782-.648 0-1.014-.72-1.014-1.65 0-1.08.42-2.07.906-2.676l-1.35-.87c-.726.9-1.098 2.268-1.098 3.54 0 1.806.882 3.438 2.736 3.438 1.464 0 2.106-1.176 2.352-2.676l.078-.474c.168-1.008.354-1.734.972-1.734.636 0 1.008.666 1.008 1.608 0 .918-.306 1.722-.714 2.382zm.906 6.4791c0-2.586-1.83-4.41-4.356-4.41s-4.356 1.824-4.356 4.41c0 1.536.684 2.802 1.776 3.546l.984-1.368c-.732-.504-1.152-1.26-1.152-2.19 0-1.482 1.062-2.646 2.748-2.652 1.632 0 2.748 1.128 2.748 2.652 0 .936-.432 1.698-1.158 2.172l.882 1.44c1.176-.684 1.884-2.052 1.884-3.6zm-.156 5.9395h-8.4v1.674h3.342v.492l-3.342 2.448v2.028l3.366-2.586c.156 1.614 1.098 2.574 2.478 2.574 1.608 0 2.556-1.074 2.556-3.078zm-1.542 3.522c0 .888-.318 1.386-1.014 1.386-.708 0-1.044-.474-1.044-1.386v-1.848h2.058zm1.698 9.5077c0-2.586-1.848-4.41-4.356-4.41s-4.356 1.824-4.356 4.41 1.848 4.416 4.356 4.416 4.356-1.83 4.356-4.416zm-1.608 0c0 1.548-1.116 2.664-2.748 2.664s-2.748-1.116-2.748-2.664c0-1.542 1.116-2.664 2.748-2.664s2.748 1.122 2.748 2.664zm-5.382 12.9207v-4.44h6.834v-1.674h-8.4v6.114zm0 8.1545v-4.44h6.834v-1.674h-8.4v6.114z"/><path d="m2 71h2v60h-2z"/></g></svg>